<svg width="18" height="18" viewBox="0 0 18 18" fill="none" xmlns="http://www.w3.org/2000/svg">
<g clip-path="url(#clip0_547:4405)">
<path d="M5.66262 16.3125C12.4534 16.3125 16.1687 10.6851 16.1687 5.80646C16.1687 5.64825 16.1652 5.48653 16.1582 5.32833C16.8809 4.80566 17.5046 4.15825 18 3.41653C17.3269 3.71601 16.6122 3.9116 15.8804 3.99661C16.651 3.53474 17.2279 2.80917 17.5043 1.95439C16.7794 2.38398 15.9867 2.68702 15.1601 2.85052C14.6031 2.25873 13.8667 1.8669 13.0648 1.7356C12.2628 1.6043 11.4399 1.74085 10.7233 2.12413C10.0067 2.50742 9.43635 3.11609 9.10039 3.85604C8.76442 4.596 8.68157 5.42602 8.86465 6.21778C7.39687 6.14413 5.96095 5.76284 4.64999 5.09863C3.33902 4.43443 2.18227 3.50214 1.25473 2.3622C0.7833 3.17499 0.639042 4.1368 0.851273 5.05213C1.0635 5.96746 1.6163 6.76765 2.3973 7.29005C1.81097 7.27144 1.23748 7.11357 0.724219 6.8295V6.87521C0.723693 7.72817 1.01857 8.555 1.55873 9.21514C2.09889 9.87528 2.85099 10.328 3.68719 10.4963C3.14404 10.6449 2.57399 10.6666 2.02113 10.5596C2.25709 11.2931 2.71618 11.9347 3.33433 12.3948C3.95248 12.8549 4.69884 13.1105 5.46926 13.126C4.16132 14.1534 2.54563 14.7107 0.882422 14.708C0.587465 14.7076 0.292799 14.6895 0 14.6539C1.68964 15.7379 3.65515 16.3136 5.66262 16.3125Z" fill="white"/>
</g>
<defs>
<clipPath id="clip0_547:4405">
<rect width="18" height="18" fill="white"/>
</clipPath>
</defs>
</svg>
