<svg width="24" height="24" viewBox="0 0 24 24" fill="none" xmlns="http://www.w3.org/2000/svg">
<path d="M23.3106 0.000284923C23.2736 0.000836842 23.2355 0.00425184 23.1991 0.0110646H23.1971L19.5227 0.666468C19.289 0.708343 19.0931 0.8757 19.0066 1.10628C19.0066 1.107 19.0066 1.10771 19.0066 1.10843L17.3016 5.67473L0.661377 6.10807C0.470012 6.11306 0.290379 6.20334 0.165956 6.35385C0.0415323 6.50435 -0.0183338 6.70451 0.00493774 6.90361L0.923514 14.8395C0.961411 15.1725 1.2248 15.4365 1.54486 15.4626L13.4079 16.4478L15.7591 18.3795C15.7618 18.3818 15.7645 18.3839 15.7673 18.386C15.7699 18.3878 15.773 18.3885 15.7756 18.3903C15.7782 18.3921 15.781 18.3948 15.7839 18.3968C16.2129 18.7313 16.3193 19.187 16.2586 19.4402C16.2241 19.5846 16.1713 19.6906 16.046 19.7723C15.9207 19.8539 15.7042 19.913 15.3339 19.8908C15.3325 19.8908 15.3311 19.8908 15.3297 19.8908C15.3178 19.8904 15.3045 19.8906 15.2926 19.8908H15.2864L1.13778 19.934H1.13573C0.763916 19.9315 0.450995 20.2572 0.452449 20.6454C0.453902 21.0336 0.768058 21.3581 1.13983 21.3525H1.14188L2.17605 21.3504C1.79179 21.6062 1.53407 22.0537 1.53407 22.562C1.53407 23.3525 2.15402 24 2.91095 24C3.66787 24 4.28782 23.3525 4.28782 22.562C4.28782 22.051 4.02942 21.599 3.64171 21.3439L15.2927 21.3094C14.8729 21.5566 14.5867 22.0258 14.5867 22.562C14.5867 23.3525 15.2066 24 15.9636 24C16.7205 24 17.3404 23.3525 17.3404 22.562C17.3404 21.8754 16.8734 21.2966 16.2546 21.1563C16.8397 20.9401 17.2892 20.4944 17.5675 19.8131C17.5716 19.8048 17.575 19.7962 17.5778 19.7873C17.7912 18.8962 17.4127 17.9274 16.6324 17.2972C16.6304 17.2949 16.6283 17.2928 16.6262 17.2907C16.6243 17.2892 16.6239 17.2857 16.6221 17.2842C16.6153 17.2756 16.6077 17.2676 16.5994 17.2605L14.9335 15.8958L20.1292 1.99644L23.4258 1.41002H23.4279C23.7742 1.35187 24.0275 1.01477 23.9976 0.648996C23.9677 0.282509 23.662 -0.00493075 23.3102 6.41189e-05L23.3106 0.000284923ZM16.7999 6.76991L15.8421 9.33551H14.5932V6.82814L16.7999 6.76993V6.76991ZM14.1164 6.84106V9.33545H11.8106V6.90142L14.1164 6.84106ZM11.3337 6.9122V9.33547H9.02799V6.97256L11.3337 6.9122ZM8.55113 6.9855V9.33543H6.24538V7.0458L8.55113 6.98543V6.9855ZM5.76852 7.0588V9.33547H3.46276V7.11917L5.76852 7.0588ZM2.9859 7.12994V9.33548H1.29526L1.04548 7.18169L2.98588 7.12994H2.9859ZM1.35306 9.83131H2.9859V12.0842H1.61319L1.35309 9.83131H1.35306ZM3.46276 9.83131H5.76852V12.0842H3.46276V9.83131ZM6.24538 9.83131H8.55113V12.0842H6.24538V9.83131ZM9.02799 9.83131H11.3337V12.0842H9.02799V9.83131ZM11.8106 9.83131H14.1164V12.0842H11.8106V9.83131ZM14.5932 9.83131H15.6584L14.8162 12.0842H14.5932V9.83131ZM1.67132 12.5801H2.98623V14.1971L1.84676 14.1023L1.6713 12.5802L1.67132 12.5801ZM3.46309 12.5801H5.76885V14.4278L3.46309 14.2359V12.5801V12.5801ZM6.24571 12.5801H8.55146V14.6585L6.24571 14.4687V12.5801ZM9.02832 12.5801H11.3341V14.8913L9.02832 14.6994V12.5801V12.5801ZM11.8109 12.5801H14.1167V13.9513L13.6791 15.122C13.6223 15.0933 13.5603 15.0756 13.4974 15.0703L11.8109 14.9301V12.5802V12.5801ZM14.5936 12.5801H14.6286L14.5936 12.6815V12.5801ZM2.91218 21.7172C3.3621 21.7172 3.72137 22.0924 3.72137 22.5623C3.72137 23.0322 3.3621 23.4053 2.91218 23.4053C2.46227 23.4053 2.10299 23.0322 2.10299 22.5623C2.10299 22.0924 2.46229 21.7172 2.91218 21.7172ZM15.9642 21.7172C16.4141 21.7172 16.7734 22.0924 16.7734 22.5623C16.7734 23.0322 16.4141 23.4053 15.9642 23.4053C15.5143 23.4053 15.155 23.0322 15.155 22.5623C15.155 22.0924 15.5143 21.7172 15.9642 21.7172ZM2.91218 22.1182C2.66777 22.1182 2.4725 22.3221 2.4725 22.5774C2.4725 22.8326 2.66777 23.0344 2.91218 23.0344C3.1566 23.0344 3.35187 22.8326 3.35187 22.5774C3.35187 22.3221 3.15661 22.1182 2.91218 22.1182ZM15.9642 22.1182C15.7198 22.1182 15.5245 22.3221 15.5245 22.5774C15.5245 22.8326 15.7198 23.0344 15.9642 23.0344C16.2086 23.0344 16.4039 22.8326 16.4039 22.5774C16.4039 22.3221 16.2086 22.1182 15.9642 22.1182Z" fill="black"/>
</svg>
