<?xml version="1.0" encoding="UTF-8"?>
<svg viewBox="0 0 394.1 569.8625625" xmlns="http://www.w3.org/2000/svg" xmlns:xlink="http://www.w3.org/1999/xlink">
 <defs>
  <linearGradient id="a">
   <stop stop-color="#fff" stop-opacity=".79221" offset="0"/>
   <stop stop-color="#fff" stop-opacity="0" offset="1"/>
  </linearGradient>
  <linearGradient id="e" x1="1471.1" x2="1340.6" y1="631.72" y2="615.94" gradientUnits="userSpaceOnUse" xlink:href="#a"/>
  <linearGradient id="d" x1="1275.6" x2="1263.9" y1="190.45" y2="253.31" gradientUnits="userSpaceOnUse" xlink:href="#a"/>
  <linearGradient id="c" x1="1347.9" x2="1353.6" y1="224.2" y2="249.74" gradientUnits="userSpaceOnUse" xlink:href="#a"/>
  <linearGradient id="b" x1="1184.3" x2="1145" y1="192.28" y2="211.57" gradientUnits="userSpaceOnUse" xlink:href="#a"/>
 </defs>
 <g transform="matrix(-.56618 0 0 .56618 846.61 -31.903)">
  <path d="m1083 300.67 20.316 611.04c94.807 66.892 234.93 62.539 335.99 4.6883l46.883-609.48c-156.98-59.806-283.34-41.329-403.19-6.251z" fill="#bedbff" fill-rule="evenodd" stroke="#000" stroke-width="4"/>
  <path d="m1098.4 327.83 34.859 522.31c92.644 39.016 190.74 41.702 284.42-6.251l53.295-512.2c-138.98 56.301-277.53 42.685-372.58-3.858z" fill="#ffa2c2" fill-rule="evenodd" stroke="#000" stroke-width="4"/>
  <path d="m1096.9 309.16c-0.5584 0.65151 76.674 40.608 176.69 42.068 104.61 1.5269 202.8-34.721 196.84-38.847 0 0-76.48-33.191-170.25-35.145s-203.29 31.924-203.29 31.924z" fill="#fff" fill-opacity=".46599" fill-rule="evenodd" stroke="#000" stroke-width="4"/>
  <path d="m1112.4 316.07c98.976-34.499 250.78-39.783 343.39 3.4717-118.84 53.142-275.18 34.647-343.39-3.4717z" fill="#ffa2c2" fill-rule="evenodd" stroke="#000" stroke-width="4"/>
  <path d="m1111.3 318.29c14.234 6.4018 28.262 12.186 41.971 17.011l12.078 606.19c-9.9117-3.3121-19.714-7.0634-29.103-12.463l-24.946-610.74z" fill="#fff" fill-opacity=".58503" fill-rule="evenodd"/>
  <path d="m1405.3 339.49c24.287-6.8916 46.934-14.25 69.715-24.771l-63.667 613.72c-23.578 10.386-36.216 14.269-52.087 18.941l46.039-607.88z" fill="url(#e)" fill-rule="evenodd"/>
  <path d="m1351.4 948.64 45.58-606.9-16.536 4.5097-42.332 605.72 13.288-3.3282z" fill="#fff" fill-opacity=".4898" fill-rule="evenodd"/>
  <path d="m1420.2 318.91c-5.1964-8.3052-18.427-8.5766-28.042-12.463" fill="none" stroke="#000" stroke-width="5"/>
  <path d="m1337.7 205.24-29.131-43.696 32.044 25.635-11.07-37.287 34.957 36.122 0.5826-30.879 15.731 36.705 43.696-17.478-25.052 26.8 46.027 2.9131-33.792 10.487 34.374 26.8-108.37-36.122z" fill="#006f00" fill-rule="evenodd" stroke="#000" stroke-linejoin="round" stroke-width="4"/>
  <path d="m1249.2 311.02c-12.45-0.40161-19.845-124.31 48.108-132.5 39.975-4.8158 62.304 22.083 62.304 22.083 41.055-2.2639 62.443 16.545 74.134 45.742 0 0 7.2951 28.786-7.098 48.897s-50.474 31.547-50.474 31.547-43.185-17.207-68.422-20.953-33.11 6.5509-33.11 6.5509l-25.443-1.3713z" fill="#f30600" fill-rule="evenodd" stroke="#000" stroke-width="4"/>
  <path d="m1342.9 248.76s-7.3347 2.9307-8.8581 8.6434 2.7644 14.208 2.7644 14.208 6.7554-7.4185 8.2788-13.131-2.1851-9.7198-2.1851-9.7198z" fill="#ffca00" fill-rule="evenodd" stroke="#000" stroke-width="4"/>
  <path d="m1385.5 231.24s-5.8032 4.7187-5.9936 9.6698 5.2319 10.134 5.2319 10.134 4.0151-5.0834 4.2055-10.034-3.4438-9.7698-3.4438-9.7698z" fill="#ffca00" fill-rule="evenodd" stroke="#000" stroke-width="4"/>
  <path d="m1406.9 254.31s-3.9033 4.7026-3.7392 9.2728 4.3958 9.0081 4.3958 9.0081 4.1037-4.5702 3.9396-9.1404-4.5962-9.1404-4.5962-9.1404z" fill="#ffca00" fill-rule="evenodd" stroke="#000" stroke-width="3.7138"/>
  <path d="m1368.5 271.98s-5.397 4.3377-6.518 10.223 2.0341 13.317 2.0341 13.317 5.7628-5.0562 6.8837-10.941-2.3998-12.599-2.3998-12.599z" fill="#ffca00" fill-rule="evenodd" stroke="#000" stroke-width="2.9433"/>
  <path d="m1300.3 201.15s0.4203 7.7386-3.1119 11.885-11.017 4.7009-11.017 4.7009 0.1537-7.6982 3.6859-11.845 10.443-4.7412 10.443-4.7412z" fill="#ffca00" fill-rule="evenodd" stroke="#000" stroke-width="3.2259"/>
  <path d="m1335 213.22s1.7707 6.087-0.5082 10.787-8.6072 8.0134-8.6072 8.0134-2.7122-7.189-0.4334-11.889 9.5488-6.9113 9.5488-6.9113z" fill="#ffca00" fill-rule="evenodd" stroke="#000" stroke-width="2.9918"/>
  <path d="m1303.7 267.03s-4.9834 5.7209-5.3643 11.243 3.8409 10.846 3.8409 10.846 4.5863-4.6945 4.9672-10.217-3.4438-11.873-3.4438-11.873z" fill="#ffca00" fill-rule="evenodd" stroke="#000" stroke-width="4"/>
  <path d="m1260.9 270.43s5.1935 5.9998 6.0566 12.035-2.6043 12.106-2.6043 12.106-5.9003-4.852-6.7634-10.887 3.3111-13.254 3.3111-13.254z" fill="#ffca00" fill-rule="evenodd" stroke="#000" stroke-width="4"/>
  <path d="m1271.1 226.36s3.6642 8.5692 2.6648 13.711-6.662 6.8553-6.662 6.8553-3.6642-7.0458-2.6648-12.187 6.662-8.3788 6.662-8.3788z" fill="#ffca00" fill-rule="evenodd" stroke="#000" stroke-width="3.7408"/>
  <path d="m1342.4 197.36c-10.55-6.5038-25.476-17.287-54.18-9.0301 0 0-10.233 19.944-12.264 38.682s4.515 37.023 4.515 37.023l17.157 1.806s-6.7726-14.674 4.515-31.605 40.258-36.876 40.258-36.876z" fill="url(#d)" fill-rule="evenodd"/>
  <path transform="matrix(.97179 -.23583 .23583 .97179 -13.668 308.16)" d="m1343.7 227.21a20.963 10.953 0 1 1 -0.0839 0.01893" fill="url(#c)"/>
  <path d="m1216.3 317.23-105.46-250.85c-20.314-4.374-29.617 3.1816-32.764 17.406l97.267 237.54" fill="#725eff" fill-rule="evenodd" stroke="#000" stroke-width="5"/>
  <path d="m1109.6 68.431-8.7129 12.447 98.969 236.83h13.692l-103.95-249.27z" fill="url(#b)" fill-rule="evenodd"/>
  <path d="m1110.3 65.682s-13.248-3.6275-21.45 0.9463-11.356 17.349-11.356 17.349 7.3839 6.4228 22.26-0.97431c12.886-6.4075 10.546-17.321 10.546-17.321z" fill-rule="evenodd" stroke="#000"/>
  <path d="m1299.6 311.55c-29.324-12.395-48.145-2.4211-65.377 9.7475" fill="#ffa2c2" fill-rule="evenodd" stroke="#000" stroke-width="5"/>
  <path d="m1209.5 321.89c-11.026-7.8103-28.616-6.0331-36.819-0.81058" fill="#ffa2c2" fill-rule="evenodd" stroke="#000" stroke-width="5"/>
 </g>
 <g transform="matrix(.56618 0 0 .56618 -452.28 21.535)">
  <path d="m1083 300.67 20.316 611.04c94.807 66.892 234.93 62.539 335.99 4.6883l46.883-609.48c-156.98-59.806-283.34-41.329-403.19-6.251z" fill="#bedbff" fill-rule="evenodd" stroke="#000" stroke-width="4"/>
  <path d="m1098.4 327.83 34.859 522.31c92.644 39.016 190.74 41.702 284.42-6.251l53.295-512.2c-138.98 56.301-277.53 42.685-372.58-3.858z" fill="#ffa2c2" fill-rule="evenodd" stroke="#000" stroke-width="4"/>
  <path d="m1096.9 309.16c-0.5584 0.65151 76.674 40.608 176.69 42.068 104.61 1.5269 202.8-34.721 196.84-38.847 0 0-76.48-33.191-170.25-35.145s-203.29 31.924-203.29 31.924z" fill="#fff" fill-opacity=".46599" fill-rule="evenodd" stroke="#000" stroke-width="4"/>
  <path d="m1112.4 316.07c98.976-34.499 250.78-39.783 343.39 3.4717-118.84 53.142-275.18 34.647-343.39-3.4717z" fill="#ffa2c2" fill-rule="evenodd" stroke="#000" stroke-width="4"/>
  <path d="m1111.3 318.29c14.234 6.4018 28.262 12.186 41.971 17.011l12.078 606.19c-9.9117-3.3121-19.714-7.0634-29.103-12.463l-24.946-610.74z" fill="#fff" fill-opacity=".58503" fill-rule="evenodd"/>
  <path d="m1405.3 339.49c24.287-6.8916 46.934-14.25 69.715-24.771l-63.667 613.72c-23.578 10.386-36.216 14.269-52.087 18.941l46.039-607.88z" fill="url(#e)" fill-rule="evenodd"/>
  <path d="m1351.4 948.64 45.58-606.9-16.536 4.5097-42.332 605.72 13.288-3.3282z" fill="#fff" fill-opacity=".4898" fill-rule="evenodd"/>
  <path d="m1420.2 318.91c-5.1964-8.3052-18.427-8.5766-28.042-12.463" fill="none" stroke="#000" stroke-width="5"/>
  <path d="m1337.7 205.24-29.131-43.696 32.044 25.635-11.07-37.287 34.957 36.122 0.5826-30.879 15.731 36.705 43.696-17.478-25.052 26.8 46.027 2.9131-33.792 10.487 34.374 26.8-108.37-36.122z" fill="#006f00" fill-rule="evenodd" stroke="#000" stroke-linejoin="round" stroke-width="4"/>
  <path d="m1249.2 311.02c-12.45-0.40161-19.845-124.31 48.108-132.5 39.975-4.8158 62.304 22.083 62.304 22.083 41.055-2.2639 62.443 16.545 74.134 45.742 0 0 7.2951 28.786-7.098 48.897s-50.474 31.547-50.474 31.547-43.185-17.207-68.422-20.953-33.11 6.5509-33.11 6.5509l-25.443-1.3713z" fill="#f30600" fill-rule="evenodd" stroke="#000" stroke-width="4"/>
  <path d="m1342.9 248.76s-7.3347 2.9307-8.8581 8.6434 2.7644 14.208 2.7644 14.208 6.7554-7.4185 8.2788-13.131-2.1851-9.7198-2.1851-9.7198z" fill="#ffca00" fill-rule="evenodd" stroke="#000" stroke-width="4"/>
  <path d="m1385.5 231.24s-5.8032 4.7187-5.9936 9.6698 5.2319 10.134 5.2319 10.134 4.0151-5.0834 4.2055-10.034-3.4438-9.7698-3.4438-9.7698z" fill="#ffca00" fill-rule="evenodd" stroke="#000" stroke-width="4"/>
  <path d="m1406.9 254.31s-3.9033 4.7026-3.7392 9.2728 4.3958 9.0081 4.3958 9.0081 4.1037-4.5702 3.9396-9.1404-4.5962-9.1404-4.5962-9.1404z" fill="#ffca00" fill-rule="evenodd" stroke="#000" stroke-width="3.7138"/>
  <path d="m1368.5 271.98s-5.397 4.3377-6.518 10.223 2.0341 13.317 2.0341 13.317 5.7628-5.0562 6.8837-10.941-2.3998-12.599-2.3998-12.599z" fill="#ffca00" fill-rule="evenodd" stroke="#000" stroke-width="2.9433"/>
  <path d="m1300.3 201.15s0.4203 7.7386-3.1119 11.885-11.017 4.7009-11.017 4.7009 0.1537-7.6982 3.6859-11.845 10.443-4.7412 10.443-4.7412z" fill="#ffca00" fill-rule="evenodd" stroke="#000" stroke-width="3.2259"/>
  <path d="m1335 213.22s1.7707 6.087-0.5082 10.787-8.6072 8.0134-8.6072 8.0134-2.7122-7.189-0.4334-11.889 9.5488-6.9113 9.5488-6.9113z" fill="#ffca00" fill-rule="evenodd" stroke="#000" stroke-width="2.9918"/>
  <path d="m1303.7 267.03s-4.9834 5.7209-5.3643 11.243 3.8409 10.846 3.8409 10.846 4.5863-4.6945 4.9672-10.217-3.4438-11.873-3.4438-11.873z" fill="#ffca00" fill-rule="evenodd" stroke="#000" stroke-width="4"/>
  <path d="m1260.9 270.43s5.1935 5.9998 6.0566 12.035-2.6043 12.106-2.6043 12.106-5.9003-4.852-6.7634-10.887 3.3111-13.254 3.3111-13.254z" fill="#ffca00" fill-rule="evenodd" stroke="#000" stroke-width="4"/>
  <path d="m1271.1 226.36s3.6642 8.5692 2.6648 13.711-6.662 6.8553-6.662 6.8553-3.6642-7.0458-2.6648-12.187 6.662-8.3788 6.662-8.3788z" fill="#ffca00" fill-rule="evenodd" stroke="#000" stroke-width="3.7408"/>
  <path d="m1342.4 197.36c-10.55-6.5038-25.476-17.287-54.18-9.0301 0 0-10.233 19.944-12.264 38.682s4.515 37.023 4.515 37.023l17.157 1.806s-6.7726-14.674 4.515-31.605 40.258-36.876 40.258-36.876z" fill="url(#d)" fill-rule="evenodd"/>
  <path transform="matrix(.97179 -.23583 .23583 .97179 -13.668 308.16)" d="m1343.7 227.21a20.963 10.953 0 1 1 -0.0839 0.01893" fill="url(#c)"/>
  <path d="m1216.3 317.23-105.46-250.85c-20.314-4.374-29.617 3.1816-32.764 17.406l97.267 237.54" fill="#725eff" fill-rule="evenodd" stroke="#000" stroke-width="5"/>
  <path d="m1109.6 68.431-8.7129 12.447 98.969 236.83h13.692l-103.95-249.27z" fill="url(#b)" fill-rule="evenodd"/>
  <path d="m1110.3 65.682s-13.248-3.6275-21.45 0.9463-11.356 17.349-11.356 17.349 7.3839 6.4228 22.26-0.97431c12.886-6.4075 10.546-17.321 10.546-17.321z" fill-rule="evenodd" stroke="#000"/>
  <path d="m1299.6 311.55c-29.324-12.395-48.145-2.4211-65.377 9.7475" fill="#ffa2c2" fill-rule="evenodd" stroke="#000" stroke-width="5"/>
  <path d="m1209.5 321.89c-11.026-7.8103-28.616-6.0331-36.819-0.81058" fill="#ffa2c2" fill-rule="evenodd" stroke="#000" stroke-width="5"/>
 </g>
</svg>
