<?xml version='1.0' encoding='utf-8'?>
<svg xmlns:xlink="http://www.w3.org/1999/xlink" xmlns="http://www.w3.org/2000/svg" viewBox="0 0 2330.86 2463"><defs><style>.cls-1,.cls-34{opacity:0.05;}.cls-2{fill:#efefef;}.cls-3{fill:#6b6968;opacity:0.13;}.cls-4{fill:none;stroke-linecap:round;stroke-miterlimit:10;stroke-width:60px;stroke:url(#Degradado_sin_nombre_87);}.cls-5{fill:url(#Degradado_sin_nombre_87-2);}.cls-6{fill:url(#Degradado_sin_nombre_35);}.cls-7{fill:url(#Degradado_sin_nombre_12);}.cls-8{opacity:0.41;}.cls-9{fill:url(#Degradado_sin_nombre_15);}.cls-10{opacity:0.24;}.cls-11{fill:url(#Degradado_sin_nombre_12-2);}.cls-12{fill:url(#Degradado_sin_nombre_15-2);}.cls-13{fill:url(#Degradado_sin_nombre_12-3);}.cls-14{fill:url(#Degradado_sin_nombre_15-3);}.cls-15{fill:url(#Degradado_sin_nombre_35-3);}.cls-16{fill:#020202;opacity:0.21;}.cls-17,.cls-35{fill:#fff;}.cls-17{opacity:0.15;}.cls-18{fill:url(#Degradado_sin_nombre_12-4);}.cls-19{fill:url(#Degradado_sin_nombre_12-5);}.cls-20{fill:url(#Degradado_sin_nombre_12-6);}.cls-21{fill:url(#Degradado_sin_nombre_12-7);}.cls-22{fill:url(#Degradado_sin_nombre_12-8);}.cls-23{fill:url(#Degradado_sin_nombre_12-9);}.cls-24{fill:url(#Degradado_sin_nombre_12-10);}.cls-25{fill:url(#Degradado_sin_nombre_12-11);}.cls-26{fill:url(#Degradado_sin_nombre_12-12);}.cls-27{fill:url(#Degradado_sin_nombre_12-13);}.cls-28{fill:url(#Degradado_sin_nombre_12-14);}.cls-29{fill:url(#Degradado_sin_nombre_12-15);}.cls-30{fill:url(#Degradado_sin_nombre_12-16);}.cls-31{fill:url(#Degradado_sin_nombre_12-17);}.cls-32{fill:url(#Degradado_sin_nombre_12-18);}.cls-33{fill:url(#Degradado_sin_nombre_12-19);}.cls-36{fill:url(#Degradado_sin_nombre_35-4);}.cls-37{fill:url(#Degradado_sin_nombre_35-5);}.cls-38{fill:url(#Degradado_sin_nombre_35-6);}.cls-39{fill:url(#Degradado_sin_nombre_35-7);}.cls-40{fill:url(#Degradado_sin_nombre_35-8);}.cls-41{fill:url(#Degradado_sin_nombre_35-9);}.cls-42{fill:url(#Degradado_sin_nombre_35-10);}.cls-43{fill:url(#Degradado_sin_nombre_35-11);}.cls-44{fill:url(#Degradado_sin_nombre_35-12);}.cls-45{fill:url(#Degradado_sin_nombre_35-13);}.cls-46{fill:url(#Degradado_sin_nombre_35-14);}.cls-47{fill:url(#Degradado_sin_nombre_35-15);}.cls-48{fill:url(#Degradado_sin_nombre_35-16);}.cls-49{fill:url(#Degradado_sin_nombre_35-17);}.cls-50{fill:url(#Degradado_sin_nombre_35-18);}.cls-51{fill:url(#Degradado_sin_nombre_35-19);}.cls-52{fill:url(#Degradado_sin_nombre_35-20);}.cls-53{fill:url(#Degradado_sin_nombre_35-21);}.cls-54{fill:url(#Degradado_sin_nombre_35-22);}.cls-55{fill:url(#Degradado_sin_nombre_35-23);}.cls-56{fill:url(#Degradado_sin_nombre_35-24);}.cls-57{fill:url(#Degradado_sin_nombre_35-25);}.cls-58{fill:url(#Degradado_sin_nombre_35-26);}.cls-59{fill:url(#Degradado_sin_nombre_35-27);}.cls-60{fill:url(#Degradado_sin_nombre_35-28);}.cls-61{fill:url(#Degradado_sin_nombre_35-29);}.cls-62{fill:url(#Degradado_sin_nombre_35-30);}.cls-63{fill:url(#Degradado_sin_nombre_35-31);}.cls-64{fill:url(#Degradado_sin_nombre_35-32);}.cls-65{fill:url(#Degradado_sin_nombre_87-3);}.cls-66{opacity:0.02;}.cls-67{opacity:0.1;}</style><linearGradient id="Degradado_sin_nombre_87" x1="430.71" y1="1370.25" x2="1675.71" y2="1370.25" gradientUnits="userSpaceOnUse"><stop offset="0" stop-color="#3cc"/><stop offset="0.09" stop-color="#25c2bf"/><stop offset="0.24" stop-color="#10b4ac"/><stop offset="0.4" stop-color="#04aca1"/><stop offset="0.55" stop-color="#00a99d"/><stop offset="0.77" stop-color="#01a99f"/><stop offset="0.85" stop-color="#05a9a6"/><stop offset="0.9" stop-color="#0caab1"/><stop offset="0.95" stop-color="#16aac2"/><stop offset="0.99" stop-color="#23abd8"/><stop offset="1" stop-color="#29abe2"/></linearGradient><linearGradient id="Degradado_sin_nombre_87-2" x1="631.21" y1="2148" x2="1475.21" y2="2148" xlink:href="#Degradado_sin_nombre_87"/><linearGradient id="Degradado_sin_nombre_35" x1="616.19" y1="1617.06" x2="1367.03" y2="866.22" gradientUnits="userSpaceOnUse"><stop offset="0" stop-color="#f90"/><stop offset="0.2" stop-color="#ffa404"/><stop offset="0.56" stop-color="#fec110"/><stop offset="1" stop-color="#fcee21"/></linearGradient><linearGradient id="Degradado_sin_nombre_12" x1="785.49" y1="790.52" x2="745.23" y2="-0.48" gradientUnits="userSpaceOnUse"><stop offset="0" stop-color="#6c0"/><stop offset="0.41" stop-color="#36b120"/><stop offset="0.8" stop-color="#0f9a3b"/><stop offset="1" stop-color="#009245"/></linearGradient><linearGradient id="Degradado_sin_nombre_15" x1="527.47" y1="397.75" x2="742.75" y2="397.75" gradientUnits="userSpaceOnUse"><stop offset="0" stop-color="#6c0"/><stop offset="0.17" stop-color="#84d633"/><stop offset="0.47" stop-color="#b8e789"/><stop offset="0.72" stop-color="#def4c9"/><stop offset="0.91" stop-color="#f6fcf0"/><stop offset="1" stop-color="#fff"/></linearGradient><linearGradient id="Degradado_sin_nombre_12-2" x1="-8.5" y1="644.06" x2="-33.01" y2="162.51" gradientTransform="translate(-1.64 292.08) rotate(-48.83)" xlink:href="#Degradado_sin_nombre_12"/><linearGradient id="Degradado_sin_nombre_15-2" x1="-165.58" y1="404.95" x2="-34.52" y2="404.95" gradientTransform="translate(-1.64 292.08) rotate(-48.83)" xlink:href="#Degradado_sin_nombre_15"/><linearGradient id="Degradado_sin_nombre_12-3" x1="-421.47" y1="658.97" x2="-441.76" y2="260.44" gradientTransform="translate(-213.02 501.78) rotate(-84.05)" xlink:href="#Degradado_sin_nombre_12"/><linearGradient id="Degradado_sin_nombre_15-3" x1="-551.47" y1="461.08" x2="-443.01" y2="461.08" gradientTransform="translate(-213.02 501.78) rotate(-84.05)" xlink:href="#Degradado_sin_nombre_15"/><linearGradient id="Degradado_sin_nombre_35-3" x1="715.89" y1="1400.54" x2="770.98" y2="1345.45" xlink:href="#Degradado_sin_nombre_35"/><linearGradient id="Degradado_sin_nombre_12-4" x1="67.91" y1="889.08" x2="89.83" y2="867.17" gradientTransform="translate(-368.09 208.57) rotate(-25.61)" xlink:href="#Degradado_sin_nombre_12"/><linearGradient id="Degradado_sin_nombre_12-5" x1="155.17" y1="1054.76" x2="169.19" y2="1040.75" gradientTransform="translate(-57.96 -0.95) rotate(-5.13)" xlink:href="#Degradado_sin_nombre_12"/><linearGradient id="Degradado_sin_nombre_12-6" x1="264.07" y1="1046.01" x2="277.97" y2="1032.12" gradientTransform="translate(83.79 -123.46) rotate(5.28)" xlink:href="#Degradado_sin_nombre_12"/><linearGradient id="Degradado_sin_nombre_12-7" x1="143.49" y1="394.91" x2="179.83" y2="358.57" gradientTransform="matrix(0.79, -0.61, 0.61, 0.79, -190.98, 294.3)" xlink:href="#Degradado_sin_nombre_12"/><linearGradient id="Degradado_sin_nombre_12-8" x1="105.61" y1="529.7" x2="117.16" y2="518.15" gradientTransform="matrix(0.79, -0.61, 0.61, 0.79, -190.98, 294.3)" xlink:href="#Degradado_sin_nombre_12"/><linearGradient id="Degradado_sin_nombre_12-9" x1="255.55" y1="492.62" x2="267.1" y2="481.07" gradientTransform="matrix(0.79, -0.61, 0.61, 0.79, -190.98, 294.3)" xlink:href="#Degradado_sin_nombre_12"/><linearGradient id="Degradado_sin_nombre_12-10" x1="182.09" y1="568.37" x2="190.71" y2="559.75" gradientTransform="matrix(0.79, -0.61, 0.61, 0.79, -190.98, 294.3)" xlink:href="#Degradado_sin_nombre_12"/><linearGradient id="Degradado_sin_nombre_12-11" x1="152.55" y1="649.16" x2="161.17" y2="640.54" gradientTransform="matrix(0.79, -0.61, 0.61, 0.79, -190.98, 294.3)" xlink:href="#Degradado_sin_nombre_12"/><linearGradient id="Degradado_sin_nombre_12-12" x1="272.62" y1="586.67" x2="284.17" y2="575.12" gradientTransform="matrix(0.79, -0.61, 0.61, 0.79, -190.98, 294.3)" xlink:href="#Degradado_sin_nombre_12"/><linearGradient id="Degradado_sin_nombre_12-13" x1="656.3" y1="288.19" x2="712.58" y2="231.91" xlink:href="#Degradado_sin_nombre_12"/><linearGradient id="Degradado_sin_nombre_12-14" x1="752.9" y1="149.04" x2="779.56" y2="122.38" xlink:href="#Degradado_sin_nombre_12"/><linearGradient id="Degradado_sin_nombre_12-15" x1="866.12" y1="261.84" x2="874.08" y2="253.88" xlink:href="#Degradado_sin_nombre_12"/><linearGradient id="Degradado_sin_nombre_12-16" x1="810.08" y1="387.42" x2="828.27" y2="369.23" xlink:href="#Degradado_sin_nombre_12"/><linearGradient id="Degradado_sin_nombre_12-17" x1="880.67" y1="498.72" x2="915.92" y2="463.47" xlink:href="#Degradado_sin_nombre_12"/><linearGradient id="Degradado_sin_nombre_12-18" x1="665.67" y1="581.72" x2="700.92" y2="546.47" xlink:href="#Degradado_sin_nombre_12"/><linearGradient id="Degradado_sin_nombre_12-19" x1="645.44" y1="437.7" x2="656.81" y2="426.33" xlink:href="#Degradado_sin_nombre_12"/><linearGradient id="Degradado_sin_nombre_35-4" x1="1213.89" y1="1736.54" x2="1268.98" y2="1681.45" xlink:href="#Degradado_sin_nombre_35"/><linearGradient id="Degradado_sin_nombre_35-5" x1="621.87" y1="1052.07" x2="648.59" y2="1025.35" xlink:href="#Degradado_sin_nombre_35"/><linearGradient id="Degradado_sin_nombre_35-6" x1="637.87" y1="1257.07" x2="664.59" y2="1230.35" xlink:href="#Degradado_sin_nombre_35"/><linearGradient id="Degradado_sin_nombre_35-7" x1="1106.92" y1="1320.49" x2="1123.4" y2="1304" xlink:href="#Degradado_sin_nombre_35"/><linearGradient id="Degradado_sin_nombre_35-8" x1="1211.92" y1="1334.49" x2="1228.4" y2="1318" xlink:href="#Degradado_sin_nombre_35"/><linearGradient id="Degradado_sin_nombre_35-9" x1="1044.92" y1="1481.49" x2="1061.4" y2="1465" xlink:href="#Degradado_sin_nombre_35"/><linearGradient id="Degradado_sin_nombre_35-10" x1="744.92" y1="1573.49" x2="761.4" y2="1557" xlink:href="#Degradado_sin_nombre_35"/><linearGradient id="Degradado_sin_nombre_35-11" x1="902.58" y1="1225.88" x2="958.3" y2="1170.16" xlink:href="#Degradado_sin_nombre_35"/><linearGradient id="Degradado_sin_nombre_35-12" x1="906.69" y1="1639.4" x2="974.35" y2="1571.73" xlink:href="#Degradado_sin_nombre_35"/><linearGradient id="Degradado_sin_nombre_35-13" x1="1381.1" y1="1520.61" x2="1402.31" y2="1499.39" xlink:href="#Degradado_sin_nombre_35"/><linearGradient id="Degradado_sin_nombre_35-14" x1="1049.17" y1="1797.54" x2="1056.24" y2="1790.46" xlink:href="#Degradado_sin_nombre_35"/><linearGradient id="Degradado_sin_nombre_35-15" x1="939.05" y1="1771.66" x2="950.36" y2="1760.34" xlink:href="#Degradado_sin_nombre_35"/><linearGradient id="Degradado_sin_nombre_35-16" x1="1040.46" y1="1724.24" x2="1048.95" y2="1715.76" xlink:href="#Degradado_sin_nombre_35"/><linearGradient id="Degradado_sin_nombre_35-17" x1="1200.46" y1="1529.24" x2="1208.95" y2="1520.76" xlink:href="#Degradado_sin_nombre_35"/><linearGradient id="Degradado_sin_nombre_35-18" x1="1408.46" y1="1343.24" x2="1416.95" y2="1334.76" xlink:href="#Degradado_sin_nombre_35"/><linearGradient id="Degradado_sin_nombre_35-19" x1="1447.22" y1="1204.49" x2="1464.19" y2="1187.51" xlink:href="#Degradado_sin_nombre_35"/><linearGradient id="Degradado_sin_nombre_35-20" x1="1386.91" y1="784.8" x2="1426.51" y2="745.2" xlink:href="#Degradado_sin_nombre_35"/><linearGradient id="Degradado_sin_nombre_35-21" x1="1197.27" y1="1004.44" x2="1224.14" y2="977.56" xlink:href="#Degradado_sin_nombre_35"/><linearGradient id="Degradado_sin_nombre_35-22" x1="1494.22" y1="1030.49" x2="1511.19" y2="1013.51" xlink:href="#Degradado_sin_nombre_35"/><linearGradient id="Degradado_sin_nombre_35-23" x1="1324.98" y1="1288.73" x2="1350.43" y2="1263.27" xlink:href="#Degradado_sin_nombre_35"/><linearGradient id="Degradado_sin_nombre_35-24" x1="1249.71" y1="879.99" x2="1307.7" y2="822.01" xlink:href="#Degradado_sin_nombre_35"/><linearGradient id="Degradado_sin_nombre_35-25" x1="1181.46" y1="1089.24" x2="1189.95" y2="1080.76" xlink:href="#Degradado_sin_nombre_35"/><linearGradient id="Degradado_sin_nombre_35-26" x1="946.22" y1="1393.49" x2="963.19" y2="1376.51" xlink:href="#Degradado_sin_nombre_35"/><linearGradient id="Degradado_sin_nombre_35-27" x1="1098.27" y1="926.44" x2="1125.14" y2="899.56" xlink:href="#Degradado_sin_nombre_35"/><linearGradient id="Degradado_sin_nombre_35-28" x1="796.27" y1="1218.44" x2="823.14" y2="1191.56" xlink:href="#Degradado_sin_nombre_35"/><linearGradient id="Degradado_sin_nombre_35-29" x1="683.76" y1="1184.95" x2="693.66" y2="1175.05" xlink:href="#Degradado_sin_nombre_35"/><linearGradient id="Degradado_sin_nombre_35-30" x1="887.1" y1="1040.61" x2="908.31" y2="1019.39" xlink:href="#Degradado_sin_nombre_35"/><linearGradient id="Degradado_sin_nombre_35-31" x1="586.05" y1="1127.66" x2="597.36" y2="1116.34" xlink:href="#Degradado_sin_nombre_35"/><linearGradient id="Degradado_sin_nombre_35-32" x1="616.93" y1="1424.78" x2="632.48" y2="1409.22" xlink:href="#Degradado_sin_nombre_35"/><linearGradient id="Degradado_sin_nombre_87-3" x1="630.71" y1="2232.07" x2="1050.43" y2="2232.07" xlink:href="#Degradado_sin_nombre_87"/></defs><g id="Capa_2" data-name="Capa 2"><g id="Capa_1-2" data-name="Capa 1"><ellipse class="cls-1" cx="1053.21" cy="2386" rx="621.5" ry="77"/><path class="cls-2" d="M1788.06,377.69l-13.12,31.38,2.78-31.61a117.32,117.32,0,0,0-37.48,5.76l2.26,49-16.09-43.51a117.72,117.72,0,0,0-30.29,20.61l16,43.72-25.79-33.3a115.89,115.89,0,0,0-10,13.91l-13,21.29L1700.71,489l-45.43-20.89L1015.37,1514.79l81.91,50.07L1733.63,524a117.5,117.5,0,0,1,103.2-56.17l491.79,12.36,2.24-89Z"/><path class="cls-3" d="M1691.71,525a241.84,241.84,0,0,1,27.46-34.72c24.22-25.93,52.1-43.7,86.35-53C1854.23,424.14,1911,432,1961,432.21c105.23,0,210.44.64,315.68.26l43.49-.16,9.62,0,1-41.06-542.8-13.52-13.12,31.38,2.78-31.61a117.32,117.32,0,0,0-37.48,5.76l2.26,49-16.09-43.51a117.72,117.72,0,0,0-30.29,20.61l16,43.72-25.79-33.3a115.89,115.89,0,0,0-10,13.91l-13,21.29L1700.71,489l-45.43-20.89L1015.37,1514.79l2.34-3.79S1691.54,525.26,1691.71,525Z"/><path class="cls-4" d="M460.71,818v512c0,327.23,265.27,592.5,592.5,592.5h0c327.23,0,592.5-265.27,592.5-592.5V818"/><path class="cls-5" d="M1369,2303H1246.21c-82.28,0-149-43.94-149-98.14V1923h-88.05v281.86c0,54.2-66.7,98.14-149,98.14H737.47c-58.69,0-106.26,31.34-106.26,70h844C1475.21,2334.34,1427.63,2303,1369,2303Z"/><path class="cls-6" d="M1016.71,988C953.85,878.42,879.53,823.31,808.55,798.41c-.71,0-1.34,0-1.55,0-17.76,1.7-28,15.28-28.25,32.72-.57,47.29,47.66,97.49,1.45,138.36-14.16,12.52-34.68,19-53,12.3C708.78,975,696.5,955,692.16,936.56c-5.35-22.7,1.13-43.1,13.36-62.11,11.16-17.34,25-34.92,25.77-56.45,1-28-18.24-35.72-34.91-37.25-8,.15-15.87.57-23.49,1.21-.12,0-.18,0-.18,0-77,6.55-131.5,36-131.5,36v512a510.65,510.65,0,0,0,36.25,189.61c75.36,188.9,260,322.39,475.75,322.39,282.77,0,512-229.23,512-512V1064.4C1474.64,1117,1174.3,1262.73,1016.71,988Z"/><path class="cls-6" d="M1016.71,988C953.85,878.42,879.53,823.31,808.55,798.41c-.71,0-1.34,0-1.55,0-17.76,1.7-28,15.28-28.25,32.72-.57,47.29,47.66,97.49,1.45,138.36-14.16,12.52-34.68,19-53,12.3C708.78,975,696.5,955,692.16,936.56c-5.35-22.7,1.13-43.1,13.36-62.11,11.16-17.34,25-34.92,25.77-56.45,1-28-18.24-35.72-34.91-37.25-8,.15-15.87.57-23.49,1.21-.12,0-.18,0-.18,0-77,6.55-131.5,36-131.5,36v512a510.65,510.65,0,0,0,36.25,189.61c75.36,188.9,260,322.39,475.75,322.39,282.77,0,512-229.23,512-512V1064.4C1474.64,1117,1174.3,1262.73,1016.71,988Z"/><path class="cls-7" d="M765.52,412.26,866.6,764.89c88.95-89.65,142.32-214.24,138.11-350.44C999,230.93,890.33,74.86,735.79,0c-130,88.68-213.3,239.78-208.08,408.7,5,161.44,89.71,301.63,215.23,384Z"/><g class="cls-8"><path class="cls-9" d="M582.74,408.7C578.17,241.72,619.54,92,731.56,2.94,604,92,522.54,241.62,527.71,408.7c5,161.37,89.63,301.49,215,383.87C632.39,710.11,587.14,569.69,582.74,408.7Z"/></g><g class="cls-10"><path d="M1004.71,414.45C999,230.93,890.33,74.86,735.79,0l-.06,0C836.11,75,964,212.5,967.63,395.87c2.74,136.19-43.22,279.07-101,368.72l-.25-.64.27.94C955.55,675.24,1008.92,550.65,1004.71,414.45Z"/></g><path class="cls-11" d="M296.23,580l202.1,95A289.3,289.3,0,0,0,393.09,471.31c-86.37-70.95-201.46-83.69-297.7-42.88-11.45,95.1,24.39,193.85,103.89,259.16A289.77,289.77,0,0,0,461.5,742.86Z"/><g class="cls-8"><path class="cls-12" d="M221.34,662.37C143,597.54,91,518.58,95,431.55c-10.3,94.13,25.61,191.44,104.24,256,75.94,62.39,174.08,79.76,262.1,55.3C379.36,760.42,296.88,724.88,221.34,662.37Z"/></g><g class="cls-10"><path d="M393.09,471.31c-86.37-70.95-201.46-83.69-297.7-42.88v0c74.55-16,188.82-19.42,274.33,52.38,63.51,53.33,110.56,131.66,128.46,194.09l-.39-.15.54.26A289.3,289.3,0,0,0,393.09,471.31Z"/></g><path class="cls-13" d="M208.15,979.52l182-32.25A240.16,240.16,0,0,0,0,972.9a240.16,240.16,0,0,0,397.61,37.79Z"/><g class="cls-8"><path class="cls-14" d="M196.82,1070.93C112.91,1064.5,40,1036,1.25,975.17a240.16,240.16,0,0,0,396.29,35.61C350.46,1061.78,277.73,1077.13,196.82,1070.93Z"/></g><g class="cls-10"><path d="M221.73,859.77A240.08,240.08,0,0,0,0,972.9l0,0c42.77-46.39,118.38-103.27,210.46-95.55,68.39,5.74,137.59,36.23,179.5,69.89l-.33.09.48-.09A239.43,239.43,0,0,0,221.73,859.77Z"/></g><path class="cls-15" d="M772.45,1370.5c11.29,23.06-13.05,46.5-29.14,46.5s-41.88-24.2-29.14-46.5c13.57-23.75,13.05-46.5,29.14-46.5S758.08,1341.16,772.45,1370.5Z"/><path class="cls-16" d="M772.45,1370.5c-14.37-29.34-13.05-46.5-29.14-46.5-.49,0-1,0-1.42.06,14.43,1.13,13.68,18.1,27.56,46.44,10.94,22.35-11.57,45-27.62,46.43a14.8,14.8,0,0,0,1.48.07C759.4,1417,783.74,1393.56,772.45,1370.5Z"/><path class="cls-17" d="M724.15,1368.11c10.88-19,12.7-37.46,21.3-44a20.83,20.83,0,0,0-2.14-.11c-16.09,0-15.57,22.75-29.14,46.5-12.74,22.3,13.05,46.5,29.14,46.5a24.08,24.08,0,0,0,9.81-2.4C737,1414.44,711.45,1390.33,724.15,1368.11Z"/><path class="cls-18" d="M92.59,960.44c8,6.34,3.32,18.93-2.45,21.7S71,980.66,71.69,970.47c.78-10.86-3.32-18.93,2.45-21.7S82.39,952.39,92.59,960.44Z"/><path class="cls-16" d="M92.59,960.44c-10.2-8.05-12.68-14.44-18.45-11.67l-.5.27c5.38-2.08,8,4.14,17.88,11.92,7.77,6.13,3.59,18.15-1.93,21.41l.55-.23C95.91,979.37,100.61,966.78,92.59,960.44Z"/><path class="cls-17" d="M74.85,967.89c.63-8.71-1.88-15.62.08-19.45a7.39,7.39,0,0,0-.79.33c-5.77,2.77-1.67,10.84-2.45,21.7C71,980.66,84.36,984.9,90.14,982.14a9.59,9.59,0,0,0,3.1-2.55C87.44,982.3,74.12,978.05,74.85,967.89Z"/><path class="cls-19" d="M204.49,1026.83c3.39,5.59-2.25,12.08-6.32,12.44s-11.16-5.18-8.44-11.11c2.9-6.33,2.25-12.08,6.32-12.45S200.18,1019.73,204.49,1026.83Z"/><path class="cls-16" d="M204.49,1026.83c-4.31-7.1-4.36-11.48-8.44-11.12l-.35,0c3.68,0,3.87,4.28,8,11.14,3.28,5.41-1.9,11.67-5.94,12.39l.38,0C202.24,1038.91,207.88,1032.42,204.49,1026.83Z"/><path class="cls-17" d="M192.2,1027.32c2.33-5.07,2.37-9.77,4.4-11.63l-.55,0c-4.07.37-3.42,6.12-6.32,12.45-2.72,5.93,4.36,11.48,8.44,11.11a6.07,6.07,0,0,0,2.43-.83C196.52,1038.77,189.49,1033.24,192.2,1027.32Z"/><path class="cls-20" d="M265.43,936.18c2.3,6.06-4.36,11.38-8.4,11s-10-7-6.24-12.35c4-5.65,4.36-11.38,8.4-11S262.5,928.48,265.43,936.18Z"/><path class="cls-16" d="M265.43,936.18c-2.93-7.7-2.2-12-6.24-12.35l-.36,0c3.6.62,3,4.86,5.84,12.3,2.23,5.87-3.95,11-8,11a2.52,2.52,0,0,0,.37,0C261.07,947.56,267.73,942.24,265.43,936.18Z"/><path class="cls-17" d="M253.35,934.46c3.18-4.53,4.06-9.11,6.37-10.55a2.81,2.81,0,0,0-.53-.08c-4-.38-4.44,5.35-8.4,11-3.72,5.3,2.2,12,6.24,12.35a5.9,5.9,0,0,0,2.52-.37C255.51,946.4,249.65,939.75,253.35,934.46Z"/><path class="cls-21" d="M181.39,480.64c15.2,7.49,11.94,29.54,3.54,36s-31.62,4.25-34-12.53c-2.49-17.87-11.94-29.54-3.54-36S162.06,471.12,181.39,480.64Z"/><path class="cls-16" d="M181.39,480.64c-19.33-9.52-25.56-19-34-12.53-.25.2-.49.4-.71.61,8-5.23,14.44,3.94,33.11,13.13,14.72,7.26,12.12,28.19,4.3,35.38a9.47,9.47,0,0,0,.8-.56C193.33,510.18,196.59,488.13,181.39,480.64Z"/><path class="cls-17" d="M155.21,498.87c-2-14.34-8.47-24.68-6.62-31.56a12.74,12.74,0,0,0-1.16.8c-8.4,6.49,1,18.16,3.54,36,2.34,16.78,25.56,19,34,12.53a15.78,15.78,0,0,0,4.16-5.21C180.61,517.87,157.54,515.59,155.21,498.87Z"/><path class="cls-22" d="M221.92,636.73c4.83,2.38,3.79,9.39,1.13,11.45s-10.05,1.35-10.8-4c-.79-5.68-3.79-9.39-1.12-11.45S215.78,633.71,221.92,636.73Z"/><path class="cls-16" d="M221.92,636.73c-6.14-3-8.12-6-10.79-4l-.23.19c2.54-1.66,4.59,1.25,10.52,4.18,4.68,2.3,3.86,9,1.37,11.24l.26-.18C225.72,646.12,226.75,639.11,221.92,636.73Z"/><path class="cls-17" d="M213.6,642.52c-.63-4.55-2.69-7.84-2.1-10a4,4,0,0,0-.37.25c-2.67,2.06.33,5.77,1.12,11.45.75,5.33,8.13,6,10.8,4a5.3,5.3,0,0,0,1.32-1.65C221.67,648.56,214.34,647.84,213.6,642.52Z"/><path class="cls-23" d="M317.92,515.73c4.83,2.38,3.79,9.39,1.13,11.45s-10.05,1.35-10.8-4c-.79-5.68-3.79-9.39-1.12-11.45S311.78,512.71,317.92,515.73Z"/><path class="cls-16" d="M317.92,515.73c-6.14-3-8.12-6-10.79-4l-.23.19c2.54-1.66,4.59,1.25,10.52,4.18,4.68,2.3,3.86,9,1.37,11.24l.26-.18C321.72,525.12,322.75,518.11,317.92,515.73Z"/><path class="cls-17" d="M309.6,521.52c-.63-4.55-2.69-7.84-2.1-10a4,4,0,0,0-.37.25c-2.67,2.06.33,5.77,1.12,11.45.75,5.33,8.13,6,10.8,4a5.3,5.3,0,0,0,1.32-1.65C317.67,527.56,310.34,526.84,309.6,521.52Z"/><path class="cls-24" d="M304.68,623.69c3.61,1.77,2.83,7,.84,8.54s-7.5,1-8-3c-.59-4.24-2.83-7-.84-8.54S300.1,621.43,304.68,623.69Z"/><path class="cls-16" d="M304.68,623.69c-4.58-2.26-6.06-4.51-8.05-3l-.17.14c1.9-1.24,3.42.93,7.85,3.12,3.49,1.72,2.88,6.68,1,8.38l.19-.13C307.51,630.69,308.29,625.46,304.68,623.69Z"/><path class="cls-17" d="M298.48,628c-.48-3.4-2-5.85-1.57-7.48a1.73,1.73,0,0,0-.28.19c-2,1.54.25,4.3.84,8.54.55,4,6.06,4.51,8,3a3.75,3.75,0,0,0,1-1.23C304.5,632.52,299,632,298.48,628Z"/><path class="cls-25" d="M330.68,705.69c3.61,1.77,2.83,7,.84,8.54s-7.5,1-8-3c-.59-4.24-2.83-7-.84-8.54S326.1,703.43,330.68,705.69Z"/><path class="cls-16" d="M330.68,705.69c-4.58-2.26-6.06-4.51-8.05-3l-.17.14c1.9-1.24,3.42.93,7.85,3.12,3.49,1.72,2.88,6.68,1,8.38l.19-.13C333.51,712.69,334.29,707.46,330.68,705.69Z"/><path class="cls-17" d="M324.48,710c-.48-3.4-2-5.85-1.57-7.48a1.73,1.73,0,0,0-.28.19c-2,1.54.25,4.3.84,8.54.55,4,6.06,4.51,8,3a3.75,3.75,0,0,0,1-1.23C330.5,714.52,325,714,324.48,710Z"/><path class="cls-26" d="M388.92,579.73c4.83,2.38,3.79,9.39,1.13,11.45s-10.05,1.35-10.8-4c-.79-5.68-3.79-9.39-1.12-11.45S382.78,576.71,388.92,579.73Z"/><path class="cls-16" d="M388.92,579.73c-6.14-3-8.12-6-10.79-4l-.23.19c2.54-1.66,4.59,1.25,10.52,4.18,4.68,2.3,3.86,9,1.37,11.24l.26-.18C392.72,589.12,393.75,582.11,388.92,579.73Z"/><path class="cls-17" d="M380.6,585.52c-.63-4.55-2.69-7.84-2.1-10a4,4,0,0,0-.37.25c-2.67,2.06.33,5.77,1.12,11.45.75,5.33,8.13,6,10.8,4a5.3,5.3,0,0,0,1.32-1.65C388.67,591.56,381.34,590.84,380.6,585.52Z"/><path class="cls-27" d="M714.08,257.5c11.54,23.56-13.33,47.5-29.77,47.5s-42.78-24.72-29.76-47.5c13.86-24.26,13.33-47.5,29.76-47.5S699.4,227.53,714.08,257.5Z"/><path class="cls-16" d="M714.08,257.5c-14.68-30-13.33-47.5-29.77-47.5a13.62,13.62,0,0,0-1.44.07c14.74,1.15,14,18.49,28.14,47.43,11.18,22.83-11.81,46-28.21,47.43.51.05,1,.07,1.51.07C700.75,305,725.62,281.06,714.08,257.5Z"/><path class="cls-17" d="M664.74,255.05c11.12-19.46,13-38.26,21.76-44.94a21.68,21.68,0,0,0-2.19-.11c-16.43,0-15.9,23.24-29.76,47.5-13,22.78,13.33,47.5,29.76,47.5a24.5,24.5,0,0,0,10-2.45C677.89,302.38,651.77,277.75,664.74,255.05Z"/><path class="cls-28" d="M780.27,134.5c5.47,11.16-6.31,22.5-14.1,22.5s-20.26-11.71-14.1-22.5c6.57-11.49,6.31-22.5,14.1-22.5S773.32,120.3,780.27,134.5Z"/><path class="cls-16" d="M780.27,134.5c-6.95-14.2-6.31-22.5-14.1-22.5-.23,0-.46,0-.68,0,7,.55,6.61,8.76,13.33,22.47,5.29,10.81-5.6,21.8-13.36,22.47l.71,0C774,157,785.74,145.66,780.27,134.5Z"/><path class="cls-17" d="M756.9,133.34c5.27-9.22,6.15-18.12,10.31-21.29-.33,0-.68,0-1,0-7.79,0-7.53,11-14.1,22.5-6.16,10.79,6.31,22.5,14.1,22.5a11.56,11.56,0,0,0,4.75-1.16C763.13,155.76,750.76,144.09,756.9,133.34Z"/><path class="cls-29" d="M874.29,257.5c1.63,3.33-1.88,6.71-4.21,6.71s-6.05-3.49-4.21-6.71c2-3.43,1.89-6.71,4.21-6.71S872.21,253.26,874.29,257.5Z"/><path class="cls-16" d="M874.29,257.5c-2.08-4.24-1.88-6.71-4.21-6.71h-.2c2.08.16,2,2.61,4,6.7,1.58,3.23-1.67,6.5-4,6.7h.21C872.41,264.21,875.92,260.83,874.29,257.5Z"/><path class="cls-17" d="M867.32,257.15c1.57-2.75,1.83-5.4,3.07-6.35h-.31c-2.32,0-2.25,3.28-4.21,6.71-1.84,3.22,1.89,6.71,4.21,6.71a3.5,3.5,0,0,0,1.42-.34C869.17,263.84,865.48,260.36,867.32,257.15Z"/><path class="cls-30" d="M828.75,377.5c3.73,7.62-4.31,15.35-9.62,15.35s-13.83-8-9.62-15.35c4.48-7.84,4.31-15.35,9.62-15.35S824,367.81,828.75,377.5Z"/><path class="cls-16" d="M828.75,377.5c-4.74-9.69-4.31-15.35-9.62-15.35a3.62,3.62,0,0,0-.47,0c4.77.37,4.52,6,9.1,15.33,3.61,7.38-3.82,14.87-9.12,15.33a4.1,4.1,0,0,0,.49,0C824.44,392.85,832.48,385.12,828.75,377.5Z"/><path class="cls-17" d="M812.81,376.71c3.59-6.29,4.19-12.37,7-14.53-.23,0-.46,0-.71,0-5.31,0-5.14,7.51-9.62,15.35-4.21,7.36,4.31,15.35,9.62,15.35a7.89,7.89,0,0,0,3.24-.79C817.05,392,808.61,384.05,812.81,376.71Z"/><path class="cls-31" d="M916.86,479.5c7.22,14.76-8.35,29.75-18.65,29.75s-26.79-15.48-18.64-29.75c8.68-15.2,8.35-29.75,18.64-29.75S907.66,460.73,916.86,479.5Z"/><path class="cls-16" d="M916.86,479.5c-9.2-18.77-8.35-29.75-18.65-29.75a8.77,8.77,0,0,0-.9,0c9.23.72,8.75,11.58,17.63,29.71,7,14.3-7.41,28.82-17.67,29.71.32,0,.63,0,.94,0C908.51,509.25,924.08,494.26,916.86,479.5Z"/><path class="cls-17" d="M886,478c7-12.19,8.13-24,13.63-28.15a12,12,0,0,0-1.37-.07c-10.29,0-10,14.55-18.64,29.75-8.15,14.27,8.35,29.75,18.64,29.75a15.45,15.45,0,0,0,6.28-1.53C894.19,507.61,877.83,492.19,886,478Z"/><path class="cls-32" d="M701.86,562.5c7.22,14.76-8.35,29.75-18.65,29.75s-26.79-15.48-18.64-29.75c8.68-15.2,8.35-29.75,18.64-29.75S692.66,543.73,701.86,562.5Z"/><path class="cls-16" d="M701.86,562.5c-9.2-18.77-8.35-29.75-18.65-29.75a8.77,8.77,0,0,0-.9,0c9.23.72,8.75,11.58,17.63,29.71,7,14.3-7.41,28.82-17.67,29.71.32,0,.63,0,.94,0C693.51,592.25,709.08,577.26,701.86,562.5Z"/><path class="cls-17" d="M671,561c7-12.19,8.13-24,13.63-28.15a12,12,0,0,0-1.37-.07c-10.29,0-10,14.55-18.64,29.75-8.15,14.27,8.35,29.75,18.64,29.75a15.45,15.45,0,0,0,6.28-1.53C679.19,590.61,662.83,575.19,671,561Z"/><path class="cls-33" d="M657.11,431.5c2.33,4.76-2.69,9.59-6,9.59s-8.64-5-6-9.59c2.8-4.9,2.69-9.59,6-9.59S654.14,425.45,657.11,431.5Z"/><path class="cls-16" d="M657.11,431.5c-3-6.05-2.69-9.59-6-9.59h-.29c3,.23,2.82,3.73,5.68,9.58,2.26,4.61-2.39,9.29-5.7,9.58h.31C654.42,441.09,659.44,436.26,657.11,431.5Z"/><path class="cls-17" d="M647.15,431c2.24-3.93,2.62-7.73,4.39-9.08a3.17,3.17,0,0,0-.44,0c-3.32,0-3.21,4.69-6,9.59-2.63,4.6,2.69,9.59,6,9.59a4.9,4.9,0,0,0,2-.49C649.8,440.56,644.53,435.59,647.15,431Z"/><g class="cls-34"><path class="cls-35" d="M789.37,959.73c.7-.93,1.36-1.86,2-2.79C790.73,957.87,790.07,958.8,789.37,959.73Z"/><path class="cls-35" d="M797.26,1773.51q-7.68-4.44-15.2-9.15Q789.58,1769.07,797.26,1773.51Z"/><path class="cls-35" d="M797.91,1773.88q7.83,4.51,15.83,8.76Q805.74,1778.4,797.91,1773.88Z"/><path class="cls-35" d="M722.58,1720.92c2.46,2.09,4.94,4.14,7.44,6.18Q726.27,1724,722.58,1720.92Z"/><path class="cls-35" d="M795.54,898.9c-.69-2.43-1.44-4.86-2.21-7.3C794.1,894,794.85,896.47,795.54,898.9Z"/><path class="cls-35" d="M823.61,804.14c1.47.61,2.94,1.22,4.41,1.85C826.55,805.36,825.08,804.75,823.61,804.14Z"/><path class="cls-35" d="M960.5,1833.61c2.66.48,5.33,1,8,1.39C965.83,1834.56,963.16,1834.09,960.5,1833.61Z"/><path class="cls-35" d="M814,800.38c1.38.51,2.77,1,4.15,1.57C816.75,801.42,815.36,800.89,814,800.38Z"/><path class="cls-35" d="M808.55,798.41c1.45.51,2.9,1,4.35,1.57C811.45,799.44,810,798.92,808.55,798.41Z"/><path class="cls-35" d="M828.1,806q2.39,1,4.77,2.1Q830.48,807,828.1,806Z"/><path class="cls-35" d="M716.79,1716c1.22,1.07,2.45,2.12,3.68,3.18C719.24,1718.07,718,1717,716.79,1716Z"/><path class="cls-35" d="M690.32,917.82q.12-3,.49-5.88Q690.44,914.87,690.32,917.82Z"/><path class="cls-35" d="M707.64,871.19l-2.12,3.26a120.88,120.88,0,0,0-6.23,10.84,120.88,120.88,0,0,1,6.23-10.84Z"/><path class="cls-35" d="M707.92,968c-1.23-1.42-2.41-2.9-3.52-4.43C705.51,965.06,706.69,966.54,707.92,968Z"/><path class="cls-35" d="M707.64,871.19l2.16-3.26Z"/><path class="cls-35" d="M952.71,1832.13l5,1Z"/><path class="cls-35" d="M692.74,902.19c.34-1.28.72-2.56,1.13-3.82C693.46,899.63,693.08,900.91,692.74,902.19Z"/><path class="cls-35" d="M842,1796.53q2.84,1.29,5.68,2.54Q844.85,1797.83,842,1796.53Z"/><path class="cls-35" d="M701.26,958.81a77.87,77.87,0,0,1-9.1-22.25A69.2,69.2,0,0,1,690.27,920a69.2,69.2,0,0,0,1.89,16.61A77.87,77.87,0,0,0,701.26,958.81Z"/><path class="cls-35" d="M703,1703.51l3.32,3.08Z"/><path class="cls-35" d="M708.73,1708.77c2,1.83,4,3.64,6.09,5.44C712.77,1712.42,710.75,1710.6,708.73,1708.77Z"/><path class="cls-35" d="M701.26,958.81c.66,1.08,1.34,2.14,2,3.18C702.6,961,701.92,959.89,701.26,958.81Z"/><path class="cls-35" d="M818.34,802c1.51.59,3,1.19,4.52,1.81C821.35,803.22,819.85,802.62,818.34,802Z"/><path class="cls-35" d="M760.52,1750.12c-3-2.11-6-4.25-9-6.42C754.5,1745.87,757.49,1748,760.52,1750.12Z"/><path class="cls-35" d="M750,1742.58c-1.45-1.07-2.91-2.15-4.35-3.24C747.08,1740.43,748.54,1741.51,750,1742.58Z"/><path class="cls-35" d="M765.37,1753.47c-1.56-1.07-3.12-2.13-4.66-3.21C762.25,1751.34,763.81,1752.4,765.37,1753.47Z"/><path class="cls-35" d="M745.17,1739q-4.2-3.16-8.33-6.43Q741,1735.82,745.17,1739Z"/><path class="cls-35" d="M781.13,1763.78q-7.35-4.62-14.53-9.48Q773.77,1759.16,781.13,1763.78Z"/><path class="cls-35" d="M758.68,981.84c1.13-.37,2.25-.77,3.36-1.21C760.93,981.07,759.81,981.47,758.68,981.84Z"/><path class="cls-35" d="M652.69,1649c.63.8,1.28,1.59,1.92,2.38C654,1650.56,653.32,1649.77,652.69,1649Z"/><path class="cls-35" d="M735,1731.13c-1.34-1.07-2.69-2.14-4-3.23C732.33,1729,733.68,1730.06,735,1731.13Z"/><path class="cls-35" d="M830.74,1791.25q5.5,2.65,11.07,5.19Q836.25,1793.91,830.74,1791.25Z"/><path class="cls-35" d="M669.86,1669.38c.8.91,1.61,1.82,2.41,2.71C671.47,1671.2,670.66,1670.29,669.86,1669.38Z"/><path class="cls-35" d="M664.54,1663.29l2.26,2.61Z"/><path class="cls-35" d="M660,1657.88l-2.13-2.57Z"/><path class="cls-35" d="M789.23,805.81a26.79,26.79,0,0,0-2,2A26.79,26.79,0,0,1,789.23,805.81Z"/><path class="cls-35" d="M792.62,803.22a28.05,28.05,0,0,1,2.5-1.45A28.05,28.05,0,0,0,792.62,803.22Z"/><path class="cls-35" d="M795.12,801.77a30.21,30.21,0,0,1,4.11-1.75A30.21,30.21,0,0,0,795.12,801.77Z"/><path class="cls-35" d="M814.13,1782.85q5.37,2.84,10.82,5.56Q819.51,1785.69,814.13,1782.85Z"/><path class="cls-35" d="M825,1788.43q2.78,1.38,5.57,2.73Q827.77,1789.81,825,1788.43Z"/><path class="cls-35" d="M788.14,875.92c-.5-1.49-1-3-1.48-4.49C787.15,872.93,787.64,874.43,788.14,875.92Z"/><path class="cls-35" d="M770.08,976.75c-.85.49-1.72,1-2.6,1.41C768.36,977.71,769.23,977.24,770.08,976.75Z"/><path class="cls-35" d="M778.81,829.38c0,.57,0,1.15-.06,1.73h0C778.76,830.53,778.78,830,778.81,829.38Z"/><path class="cls-35" d="M786.88,962.75a71.59,71.59,0,0,1-6.68,6.72,62.47,62.47,0,0,1-10.12,7.28,62.47,62.47,0,0,0,10.12-7.28A71.59,71.59,0,0,0,786.88,962.75Z"/><path class="cls-35" d="M784.59,811.11c.54-.78,1.1-1.54,1.71-2.26C785.69,809.57,785.13,810.33,784.59,811.11Z"/><path class="cls-35" d="M780.31,820.3a33.13,33.13,0,0,1,2.79-6.76A33.13,33.13,0,0,0,780.31,820.3Z"/><path class="cls-35" d="M971.67,1835.53c1.55.25,3.11.49,4.66.72C974.78,1836,973.22,1835.78,971.67,1835.53Z"/><path class="cls-35" d="M1476.28,1108.18l.28-.11Z"/><path class="cls-35" d="M1469.75,1110.82l.53-.21Z"/><path class="cls-35" d="M1482.51,1105.6l.09,0Z"/><path class="cls-35" d="M1456.81,1115.82l.58-.21Z"/><path class="cls-35" d="M1488.36,1103.1l.61-.26Z"/><path class="cls-35" d="M1443.55,1120.63l.3-.11Z"/><path class="cls-35" d="M1408.26,1131.81l.38-.11Z"/><path class="cls-35" d="M1400.75,1133.87l.56-.15Z"/><path class="cls-35" d="M1500,1097.94l.61-.28Z"/><path class="cls-35" d="M1436.49,1123.05l.5-.17Z"/><path class="cls-35" d="M1422.48,1127.59l.62-.2Z"/><path class="cls-35" d="M1541.15,1077.74l.74-.39Z"/><path class="cls-35" d="M1505.91,1095.24l.41-.19Z"/><path class="cls-35" d="M646.3,1640.79c.62.81,1.24,1.62,1.87,2.42C647.54,1642.41,646.92,1641.6,646.3,1640.79Z"/><path class="cls-35" d="M1554,1070.77l.56-.31Z"/><path class="cls-35" d="M1561.42,1066.58l.68-.39Z"/><path class="cls-35" d="M1557.67,1068.71l.54-.3Z"/><path class="cls-35" d="M1385.88,1137.63l.75-.17Z"/><path class="cls-35" d="M1516.64,1090.16l.68-.33Z"/><path class="cls-35" d="M1511.37,1092.68l.28-.13Z"/><path class="cls-35" d="M1532,1082.52l.51-.26Z"/><path class="cls-35" d="M1526.84,1085.13l.7-.35Z"/><path class="cls-35" d="M1536.58,1080.15l.45-.24Z"/><path class="cls-35" d="M1549.71,1073.14l.72-.4Z"/><path class="cls-35" d="M1273.71,1792.21q-3.26,1.55-6.52,3.06a512.53,512.53,0,0,0,116.72-74.39q-2.6,2.19-5.2,4.35V1139.29c-33.63,7.5-69.18,11.89-105,10.8Z"/><path class="cls-35" d="M969.4,917.85c1.29,1.61,2.58,3.25,3.86,4.9C972,921.1,970.69,919.46,969.4,917.85Z"/><path class="cls-35" d="M981.75,934q1.63,2.24,3.27,4.51Q983.39,936.24,981.75,934Z"/><path class="cls-35" d="M973.31,922.82q3.95,5.08,7.86,10.39Q977.25,927.9,973.31,922.82Z"/><path class="cls-35" d="M952.71,898.05c1.36,1.53,2.73,3.08,4.09,4.65C955.44,901.13,954.07,899.58,952.71,898.05Z"/><path class="cls-35" d="M985.66,939.41q3.76,5.3,7.51,10.82Q989.44,944.71,985.66,939.41Z"/><path class="cls-35" d="M991.17,1838.26l3.93.47Z"/><path class="cls-35" d="M980.18,1836.81c2.16.31,4.33.6,6.5.89C984.51,1837.41,982.34,1837.12,980.18,1836.81Z"/><path class="cls-35" d="M1002.34,1839.5l3.07.28Z"/><path class="cls-35" d="M1011.22,1840.29l2.92.23Z"/><path class="cls-35" d="M847.71,815.24v983.83a507.43,507.43,0,0,0,105,33V898.05c-38.62-43.23-79.35-71.73-119.56-89.81Q840.43,811.51,847.71,815.24Z"/><path class="cls-35" d="M956.9,902.82q6.11,7,12.13,14.57Q963,909.85,956.9,902.82Z"/><path class="cls-35" d="M1013.24,982c1.16,2,2.31,4,3.47,6C1015.55,986,1014.4,984,1013.24,982Z"/><path class="cls-35" d="M1187.63,1135.61l.23.08Z"/><path class="cls-35" d="M1173.51,1130.61l.26.1Z"/><path class="cls-35" d="M1237.67,1147.06l.13,0Z"/><path class="cls-35" d="M1223.27,1144.7l.18,0Z"/><path class="cls-35" d="M997.79,957.16c1,1.5,2,3,3,4.54C999.76,960.17,998.77,958.66,997.79,957.16Z"/><path class="cls-35" d="M1009.66,976q1.27,2.12,2.53,4.24Q1010.93,978.14,1009.66,976Z"/><path class="cls-35" d="M1001.43,962.78c1.2,1.88,2.4,3.77,3.6,5.69C1003.83,966.55,1002.63,964.66,1001.43,962.78Z"/><path class="cls-35" d="M993.88,951.27c1,1.47,2,2.94,3,4.43C995.85,954.21,994.86,952.74,993.88,951.27Z"/><path class="cls-35" d="M1005.68,969.52q1.44,2.33,2.88,4.69Q1007.12,971.84,1005.68,969.52Z"/><path class="cls-35" d="M1467.9,1630.34q-1.32,1.83-2.66,3.63Q1466.58,1632.17,1467.9,1630.34Z"/><path class="cls-35" d="M1538.43,1493.83q-1.08,3.21-2.2,6.39Q1537.36,1497,1538.43,1493.83Z"/><path class="cls-35" d="M1517.55,1546c-1,2-1.91,4.06-2.88,6.08C1515.64,1550.05,1516.6,1548,1517.55,1546Z"/><path class="cls-35" d="M1514.62,1552.16c-.94,2-1.9,3.92-2.87,5.87C1512.72,1556.08,1513.68,1554.13,1514.62,1552.16Z"/><path class="cls-35" d="M1523,1533.85c-.57,1.32-1.16,2.64-1.74,4C1521.85,1536.49,1522.44,1535.17,1523,1533.85Z"/><path class="cls-35" d="M1507.65,1566.05c-.66,1.27-1.32,2.54-2,3.8C1506.33,1568.59,1507,1567.32,1507.65,1566.05Z"/><path class="cls-35" d="M1510.87,1559.77c-.71,1.4-1.41,2.79-2.13,4.18C1509.46,1562.56,1510.16,1561.17,1510.87,1559.77Z"/><path class="cls-35" d="M1525.64,1527.68c-.53,1.28-1.07,2.55-1.62,3.82C1524.57,1530.23,1525.11,1529,1525.64,1527.68Z"/><path class="cls-35" d="M1536.18,1500.36q-1.1,3.09-2.22,6.15Q1535.09,1503.45,1536.18,1500.36Z"/><path class="cls-35" d="M1533.24,1508.45c-.54,1.45-1.08,2.89-1.63,4.33C1532.16,1511.34,1532.7,1509.9,1533.24,1508.45Z"/><path class="cls-35" d="M1528.21,1521.44l-1.56,3.83Z"/><path class="cls-35" d="M1530.72,1515.08c-.51,1.32-1,2.64-1.55,4C1529.69,1517.72,1530.21,1516.4,1530.72,1515.08Z"/><path class="cls-35" d="M1520.32,1540l-2,4.46Z"/><path class="cls-35" d="M1479.37,1613.86q-1.21,1.82-2.44,3.62Q1478.16,1615.68,1479.37,1613.86Z"/><path class="cls-35" d="M1475.57,1619.47c-.8,1.17-1.61,2.33-2.42,3.49C1474,1621.8,1474.77,1620.64,1475.57,1619.47Z"/><path class="cls-35" d="M1471.76,1625l-2.49,3.49Z"/><path class="cls-35" d="M1483.24,1608q-1.31,2-2.62,4Q1481.94,1610,1483.24,1608Z"/><path class="cls-35" d="M1464,1635.66q-1.58,2.11-3.17,4.21Q1462.41,1637.77,1464,1635.66Z"/><path class="cls-35" d="M1491.29,1595.14c-1.16,1.92-2.34,3.83-3.52,5.73C1489,1599,1490.13,1597.06,1491.29,1595.14Z"/><path class="cls-35" d="M1501.27,1577.94c-.68,1.23-1.37,2.45-2.06,3.67C1499.9,1580.39,1500.59,1579.17,1501.27,1577.94Z"/><path class="cls-35" d="M1498,1583.74l-2.22,3.83Z"/><path class="cls-35" d="M1487.76,1600.88q-1.74,2.79-3.53,5.57Q1486,1603.67,1487.76,1600.88Z"/><path class="cls-35" d="M1494.68,1589.47q-1.29,2.19-2.61,4.37Q1493.39,1591.67,1494.68,1589.47Z"/><path class="cls-35" d="M1504.48,1572.06c-.66,1.23-1.33,2.45-2,3.67C1503.15,1574.51,1503.82,1573.29,1504.48,1572.06Z"/><path class="cls-35" d="M1553.57,1439q-.72,3.33-1.48,6.64Q1552.86,1442.36,1553.57,1439Z"/><path class="cls-35" d="M1561.85,1389q-.39,3.36-.82,6.71Q1561.47,1392.32,1561.85,1389Z"/><path class="cls-35" d="M1558.65,1412.07c-.21,1.35-.43,2.7-.66,4C1558.22,1414.77,1558.44,1413.42,1558.65,1412.07Z"/><path class="cls-35" d="M1540.53,1487.46q-.73,2.26-1.49,4.53Q1539.79,1489.73,1540.53,1487.46Z"/><path class="cls-35" d="M1559.72,1405.12c-.2,1.4-.41,2.79-.62,4.18C1559.31,1407.91,1559.52,1406.52,1559.72,1405.12Z"/><path class="cls-35" d="M1560.74,1397.89c-.21,1.53-.41,3.07-.63,4.6C1560.33,1401,1560.53,1399.42,1560.74,1397.89Z"/><path class="cls-35" d="M1562.6,1381.93q-.35,3.45-.73,6.88Q1562.26,1385.38,1562.6,1381.93Z"/><path class="cls-35" d="M1564.92,1346.84c0,1.44-.09,2.87-.15,4.31C1564.83,1349.71,1564.88,1348.28,1564.92,1346.84Z"/><path class="cls-35" d="M1565.11,1339.38c0,1.58-.06,3.15-.1,4.72C1565.05,1342.53,1565.08,1341,1565.11,1339.38Z"/><path class="cls-35" d="M1563.81,1368.07c-.11,1.43-.22,2.85-.34,4.27C1563.59,1370.92,1563.7,1369.5,1563.81,1368.07Z"/><path class="cls-35" d="M1564.27,1361.08q-.12,2.07-.27,4.14Q1564.15,1363.15,1564.27,1361.08Z"/><path class="cls-35" d="M1564.64,1354c-.06,1.39-.13,2.78-.2,4.17C1564.51,1356.79,1564.58,1355.4,1564.64,1354Z"/><path class="cls-35" d="M1563.25,1375c-.14,1.57-.29,3.13-.44,4.69C1563,1378.15,1563.11,1376.59,1563.25,1375Z"/><path class="cls-35" d="M1546.39,1468c-.37,1.31-.74,2.62-1.12,3.93C1545.65,1470.62,1546,1469.31,1546.39,1468Z"/><path class="cls-35" d="M1550,1454.37c-.38,1.49-.75,3-1.14,4.47C1549.24,1457.36,1549.61,1455.86,1550,1454.37Z"/><path class="cls-35" d="M1548.2,1461.32c-.36,1.36-.72,2.72-1.09,4.07C1547.48,1464,1547.84,1462.68,1548.2,1461.32Z"/><path class="cls-35" d="M1542.56,1481c-.42,1.36-.85,2.71-1.28,4.07C1541.71,1483.74,1542.14,1482.39,1542.56,1481Z"/><path class="cls-35" d="M1544.51,1474.55l-1.17,3.93Z"/><path class="cls-35" d="M1552,1445.9q-.73,3.19-1.52,6.37Q1551.29,1449.09,1552,1445.9Z"/><path class="cls-35" d="M1556.28,1425.65c-.26,1.39-.54,2.79-.81,4.18C1555.74,1428.44,1556,1427,1556.28,1425.65Z"/><path class="cls-35" d="M1557.51,1418.89c-.24,1.35-.48,2.7-.73,4C1557,1421.59,1557.27,1420.24,1557.51,1418.89Z"/><path class="cls-35" d="M1555,1432.36c-.31,1.54-.64,3.07-1,4.6C1554.33,1435.43,1554.66,1433.9,1555,1432.36Z"/><path class="cls-35" d="M1460,1640.91q-4.07,5.29-8.24,10.48Q1456,1646.2,1460,1640.91Z"/><path class="cls-35" d="M1446.22,1658.16l-2.85,3.39Z"/><path class="cls-35" d="M685.09,1685.85l-2.73-2.86Z"/><path class="cls-35" d="M679.5,1680c-.87-.93-1.75-1.86-2.61-2.8C677.75,1678.1,678.63,1679,679.5,1680Z"/><path class="cls-35" d="M585,1537.43l-.15-.34Z"/><path class="cls-35" d="M580.67,1527.44l.81,1.93Z"/><path class="cls-35" d="M689.72,1690.57l3,3Z"/><path class="cls-35" d="M695.33,1696.12q1.63,1.61,3.28,3.2Q697,1697.73,695.33,1696.12Z"/><path class="cls-35" d="M1022.13,997.17l-1.25-2.06Z"/><path class="cls-35" d="M1044.25,1841.91l-2.11,0Z"/><path class="cls-35" d="M588.31,1544.79c.3.64.6,1.28.89,1.92C588.91,1546.07,588.61,1545.43,588.31,1544.79Z"/><path class="cls-35" d="M1033.5,1841.62l-1.65-.07Z"/><path class="cls-35" d="M1024.61,1841.2l-2.47-.14Z"/><path class="cls-35" d="M635.28,1625.82l1.63,2.3Z"/><path class="cls-35" d="M614.81,1594.61l1.26,2.07Z"/><path class="cls-35" d="M624.77,1610.42l1.44,2.18Z"/><path class="cls-35" d="M620.24,1603.41l1,1.58Z"/><path class="cls-35" d="M1026.55,1004.3l-1.35-2.14Z"/><path class="cls-35" d="M630.52,1619l1.3,1.88Z"/><path class="cls-35" d="M611.28,1588.69l-.76-1.29Z"/><path class="cls-35" d="M601.36,1571l.53,1Z"/><path class="cls-35" d="M596.56,1561.78l1,1.94Z"/><path class="cls-35" d="M605.4,1578.39l1.11,2Z"/><path class="cls-35" d="M592.79,1554.23c.11.22.22.43.32.65C593,1554.66,592.9,1554.45,592.79,1554.23Z"/><path class="cls-35" d="M1408.55,1698.6q-1.6,1.55-3.22,3.08Q1407,1700.15,1408.55,1698.6Z"/><path class="cls-35" d="M1398.76,1707.8l-3.25,3Z"/><path class="cls-35" d="M1413.59,1693.67q-1.74,1.72-3.49,3.44Q1411.86,1695.4,1413.59,1693.67Z"/><path class="cls-35" d="M1403.65,1703.27l-3.17,3Z"/><path class="cls-35" d="M1565.21,1330q0,3.54,0,7.06Q1565.21,1333.54,1565.21,1330Z"/><path class="cls-35" d="M1450.7,1652.73c-1,1.25-2,2.51-3.09,3.76C1448.65,1655.24,1449.68,1654,1450.7,1652.73Z"/><path class="cls-35" d="M1414.79,1692.49q4.71-4.71,9.32-9.54Q1419.51,1687.78,1414.79,1692.49Z"/><path class="cls-35" d="M642.94,1636.34c-.53-.71-1.07-1.42-1.6-2.14C641.87,1634.92,642.41,1635.63,642.94,1636.34Z"/><path class="cls-35" d="M1428.61,1678.15q-1.84,2-3.72,4Q1426.77,1680.14,1428.61,1678.15Z"/><path class="cls-35" d="M1441.84,1663.33q-1.39,1.64-2.81,3.25Q1440.44,1665,1441.84,1663.33Z"/><path class="cls-35" d="M1433.06,1673.29c-1,1.15-2.07,2.28-3.11,3.41C1431,1675.57,1432,1674.44,1433.06,1673.29Z"/><path class="cls-35" d="M1437.47,1668.36c-1,1.09-1.93,2.17-2.89,3.25C1435.54,1670.53,1436.51,1669.45,1437.47,1668.36Z"/><path class="cls-35" d="M1388.9,1716.6c-1.4,1.21-2.8,2.42-4.21,3.61C1386.1,1719,1387.5,1717.81,1388.9,1716.6Z"/><path class="cls-35" d="M1260.32,1798.37q3.2-1.41,6.36-2.87Q1263.51,1797,1260.32,1798.37Z"/><path class="cls-35" d="M1053.21,1842a512.16,512.16,0,0,0,143.34-20.35q-18.15,5.3-36.84,9.25V1124.85c-37.4-16.81-73.09-43-105-81.6h0V1842Z"/><path class="cls-35" d="M1049.86,1037.26l-.26-.33Z"/><path class="cls-35" d="M1044.83,1030.76l0-.06Z"/><path class="cls-35" d="M1035.23,1017.45l-.34-.5Z"/><path class="cls-35" d="M1225.35,1812.33c2.29-.82,4.58-1.65,6.85-2.5C1229.93,1810.68,1227.64,1811.51,1225.35,1812.33Z"/><path class="cls-35" d="M1196.65,1821.62q14.52-4.21,28.66-9.27Q1211.17,1817.39,1196.65,1821.62Z"/><path class="cls-35" d="M1232.55,1809.7q14-5.22,27.49-11.2Q1246.49,1804.49,1232.55,1809.7Z"/><path class="cls-35" d="M1030.88,1011l-1.15-1.75Z"/><path class="cls-35" d="M1393.85,1712.24l-3.49,3.08Z"/></g><path class="cls-36" d="M1270.45,1706.5c11.29,23.06-13,46.5-29.14,46.5s-41.88-24.2-29.14-46.5c13.57-23.75,13-46.5,29.14-46.5S1256.08,1677.16,1270.45,1706.5Z"/><path class="cls-16" d="M1270.45,1706.5c-14.37-29.34-13-46.5-29.14-46.5-.49,0-1,0-1.42.06,14.43,1.13,13.68,18.1,27.56,46.44,10.94,22.35-11.57,45-27.62,46.43a14.8,14.8,0,0,0,1.48.07C1257.4,1753,1281.74,1729.56,1270.45,1706.5Z"/><path class="cls-17" d="M1222.15,1704.11c10.88-19,12.7-37.46,21.3-44a20.83,20.83,0,0,0-2.14-.11c-16.09,0-15.57,22.75-29.14,46.5-12.74,22.3,13,46.5,29.14,46.5a24.08,24.08,0,0,0,9.81-2.4C1235,1750.44,1209.45,1726.33,1222.15,1704.11Z"/><path class="cls-37" d="M649.3,1037.5c5.48,11.19-6.32,22.55-14.13,22.55s-20.31-11.74-14.13-22.55c6.58-11.52,6.33-22.55,14.13-22.55S642.33,1023.27,649.3,1037.5Z"/><path class="cls-16" d="M649.3,1037.5c-7-14.23-6.32-22.55-14.13-22.55-.23,0-.46,0-.68,0,7,.54,6.63,8.78,13.36,22.52,5.31,10.84-5.61,21.85-13.4,22.52l.72,0C643,1060.05,654.78,1048.69,649.3,1037.5Z"/><path class="cls-17" d="M625.88,1036.34c5.28-9.24,6.16-18.17,10.33-21.34-.33,0-.67,0-1,0-7.8,0-7.55,11-14.13,22.55-6.18,10.81,6.33,22.55,14.13,22.55a11.61,11.61,0,0,0,4.76-1.16C632.12,1058.81,619.72,1047.12,625.88,1036.34Z"/><path class="cls-38" d="M665.3,1242.5c5.48,11.19-6.32,22.55-14.13,22.55s-20.31-11.74-14.13-22.55c6.58-11.52,6.33-22.55,14.13-22.55S658.33,1228.27,665.3,1242.5Z"/><path class="cls-16" d="M665.3,1242.5c-7-14.23-6.32-22.55-14.13-22.55-.23,0-.46,0-.68,0,7,.54,6.63,8.78,13.36,22.52,5.31,10.84-5.61,21.85-13.4,22.52l.72,0C659,1265.05,670.78,1253.69,665.3,1242.5Z"/><path class="cls-17" d="M641.88,1241.34c5.28-9.24,6.16-18.17,10.33-21.34-.33,0-.67,0-1,0-7.8,0-7.55,11-14.13,22.55-6.18,10.81,6.33,22.55,14.13,22.55a11.61,11.61,0,0,0,4.76-1.16C648.12,1263.81,635.72,1252.12,641.88,1241.34Z"/><path class="cls-39" d="M1123.84,1311.5c3.38,6.9-3.9,13.91-8.72,13.91s-12.53-7.24-8.72-13.91c4.06-7.11,3.91-13.91,8.72-13.91S1119.54,1302.72,1123.84,1311.5Z"/><path class="cls-16" d="M1123.84,1311.5c-4.3-8.78-3.9-13.91-8.72-13.91a3,3,0,0,0-.42,0c4.32.33,4.09,5.41,8.24,13.89,3.28,6.69-3.46,13.48-8.26,13.89a3.31,3.31,0,0,0,.44,0C1119.94,1325.41,1127.22,1318.4,1123.84,1311.5Z"/><path class="cls-17" d="M1109.39,1310.78c3.26-5.7,3.8-11.2,6.37-13.16a6.4,6.4,0,0,0-.64,0c-4.81,0-4.66,6.8-8.72,13.91-3.81,6.67,3.91,13.91,8.72,13.91a7.22,7.22,0,0,0,2.94-.71C1113.24,1324.65,1105.59,1317.43,1109.39,1310.78Z"/><path class="cls-40" d="M1228.84,1325.5c3.38,6.9-3.9,13.91-8.72,13.91s-12.53-7.24-8.72-13.91c4.06-7.11,3.91-13.91,8.72-13.91S1224.54,1316.72,1228.84,1325.5Z"/><path class="cls-16" d="M1228.84,1325.5c-4.3-8.78-3.9-13.91-8.72-13.91a3,3,0,0,0-.42,0c4.32.33,4.09,5.41,8.24,13.89,3.28,6.69-3.46,13.48-8.26,13.89a3.31,3.31,0,0,0,.44,0C1224.94,1339.41,1232.22,1332.4,1228.84,1325.5Z"/><path class="cls-17" d="M1214.39,1324.78c3.26-5.7,3.8-11.2,6.37-13.16a6.4,6.4,0,0,0-.64,0c-4.81,0-4.66,6.8-8.72,13.91-3.81,6.67,3.91,13.91,8.72,13.91a7.22,7.22,0,0,0,2.94-.71C1218.24,1338.65,1210.59,1331.43,1214.39,1324.78Z"/><path class="cls-41" d="M1061.84,1472.5c3.38,6.9-3.9,13.91-8.72,13.91s-12.53-7.24-8.72-13.91c4.06-7.11,3.91-13.91,8.72-13.91S1057.54,1463.72,1061.84,1472.5Z"/><path class="cls-16" d="M1061.84,1472.5c-4.3-8.78-3.9-13.91-8.72-13.91a3,3,0,0,0-.42,0c4.32.33,4.09,5.41,8.24,13.89,3.28,6.69-3.46,13.48-8.26,13.89a3.31,3.31,0,0,0,.44,0C1057.94,1486.41,1065.22,1479.4,1061.84,1472.5Z"/><path class="cls-17" d="M1047.39,1471.78c3.26-5.7,3.8-11.2,6.37-13.16a6.4,6.4,0,0,0-.64,0c-4.81,0-4.66,6.8-8.72,13.91-3.81,6.67,3.91,13.91,8.72,13.91a7.22,7.22,0,0,0,2.94-.71C1051.24,1485.65,1043.59,1478.43,1047.39,1471.78Z"/><path class="cls-42" d="M761.84,1564.5c3.38,6.9-3.9,13.91-8.72,13.91s-12.53-7.24-8.72-13.91c4.06-7.11,3.91-13.91,8.72-13.91S757.54,1555.72,761.84,1564.5Z"/><path class="cls-16" d="M761.84,1564.5c-4.3-8.78-3.9-13.91-8.72-13.91a3,3,0,0,0-.42,0c4.32.33,4.09,5.41,8.24,13.89,3.28,6.69-3.46,13.48-8.26,13.89a3.31,3.31,0,0,0,.44,0C757.94,1578.41,765.22,1571.4,761.84,1564.5Z"/><path class="cls-17" d="M747.39,1563.78c3.26-5.7,3.8-11.2,6.37-13.16a6.4,6.4,0,0,0-.64,0c-4.81,0-4.66,6.8-8.72,13.91-3.81,6.67,3.91,13.91,8.72,13.91a7.22,7.22,0,0,0,2.94-.71C751.24,1577.65,743.59,1570.43,747.39,1563.78Z"/><path class="cls-43" d="M959.78,1195.5c11.43,23.33-13.19,47-29.47,47s-42.36-24.48-29.47-47c13.73-24,13.2-47,29.47-47S945.25,1165.83,959.78,1195.5Z"/><path class="cls-16" d="M959.78,1195.5c-14.53-29.67-13.19-47-29.47-47-.49,0-1,0-1.43.06,14.6,1.14,13.83,18.31,27.87,47,11.07,22.6-11.7,45.56-27.93,47,.5,0,1,.07,1.49.07C946.59,1242.53,971.21,1218.83,959.78,1195.5Z"/><path class="cls-17" d="M910.93,1193.08c11-19.27,12.85-37.88,21.55-44.5a21.43,21.43,0,0,0-2.17-.11c-16.27,0-15.74,23-29.47,47-12.89,22.55,13.2,47,29.47,47a24.26,24.26,0,0,0,9.92-2.43C924,1239.94,898.09,1215.55,910.93,1193.08Z"/><path class="cls-44" d="M976.15,1602.5c13.88,28.33-16,57.11-35.78,57.11s-51.44-29.72-35.79-57.11c16.67-29.17,16-57.11,35.79-57.11S958.51,1566.47,976.15,1602.5Z"/><path class="cls-16" d="M976.15,1602.5c-17.64-36-16-57.11-35.78-57.11-.6,0-1.18,0-1.74.08,17.72,1.38,16.79,22.23,33.84,57,13.44,27.45-14.21,55.32-33.92,57,.62,0,1.22.08,1.82.08C960.13,1659.61,990,1630.83,976.15,1602.5Z"/><path class="cls-17" d="M916.84,1599.56c13.37-23.4,15.6-46,26.16-54a24.43,24.43,0,0,0-2.63-.14c-19.77,0-19.12,27.94-35.79,57.11-15.65,27.39,16,57.11,35.79,57.11a29.45,29.45,0,0,0,12-2.95C932.64,1656.46,901.24,1626.85,916.84,1599.56Z"/><circle class="cls-45" cx="1391.71" cy="1510" r="15"/><circle class="cls-46" cx="1052.71" cy="1794" r="5"/><circle class="cls-47" cx="944.71" cy="1766" r="8"/><circle class="cls-48" cx="1044.71" cy="1720" r="6"/><circle class="cls-49" cx="1204.71" cy="1525" r="6"/><circle class="cls-50" cx="1412.71" cy="1339" r="6"/><circle class="cls-51" cx="1455.71" cy="1196" r="12"/><circle class="cls-52" cx="1406.71" cy="765" r="28"/><circle class="cls-53" cx="1210.71" cy="991" r="19"/><circle class="cls-54" cx="1502.71" cy="1022" r="12"/><circle class="cls-55" cx="1337.71" cy="1276" r="18"/><circle class="cls-56" cx="1278.71" cy="851" r="41"/><circle class="cls-57" cx="1185.71" cy="1085" r="6"/><circle class="cls-58" cx="954.71" cy="1385" r="12"/><circle class="cls-59" cx="1111.71" cy="913" r="19"/><circle class="cls-60" cx="809.71" cy="1205" r="19"/><circle class="cls-61" cx="688.71" cy="1180" r="7"/><circle class="cls-62" cx="897.71" cy="1030" r="15"/><circle class="cls-63" cx="591.71" cy="1122" r="8"/><circle class="cls-64" cx="624.71" cy="1417" r="11"/><path class="cls-65" d="M1050.43,2204c0-40.7-15.09-79.08-41.75-112.86v113.72c0,54.2-66.7,98.14-149,98.14H737c-58.69,0-106.26,31.34-106.26,70H947.78C1011.38,2329,1050.43,2269.52,1050.43,2204Z"/><path class="cls-66" d="M1303,1149.81a582.1,582.1,0,0,1,4.74,74.19c0,284.21-205.85,520.33-476.58,567.44A509.94,509.94,0,0,0,1053.21,1842c282.77,0,512-229.23,512-512V1064.4C1518.06,1091.79,1414.07,1144.4,1303,1149.81Z"/><g class="cls-67"><path class="cls-35" d="M881.75,835.39a319.13,319.13,0,0,0-73.2-37c-.71,0-1.34,0-1.55,0-17.76,1.7-28,15.28-28.25,32.72-.24,20.22,8.43,41,14.84,61.31A644.47,644.47,0,0,1,881.75,835.39Z"/><path class="cls-35" d="M570.71,1327c0-134.92,52.09-258.94,139.24-356.84-8.91-9.23-15-21.75-17.79-33.6-5.35-22.7,1.13-43.1,13.36-62.11,11.16-17.34,25-34.92,25.77-56.45,1-28-18.24-35.72-34.91-37.25-8,.15-15.87.57-23.49,1.21-.12,0-.18,0-.18,0-77,6.55-131.5,36-131.5,36v512a511.44,511.44,0,0,0,307,469.31C680.61,1696,570.71,1523,570.71,1327Z"/></g></g></g></svg>