<svg width="50" height="50" viewBox="0 0 50 50" fill="none" xmlns="http://www.w3.org/2000/svg">
<g clip-path="url(#clip0_547:4545)">
<path fill-rule="evenodd" clip-rule="evenodd" d="M20.7491 19.3026C16.0765 22.0003 23.2059 35.3659 28.3189 32.4139L33.0597 40.625C30.9024 41.8706 29.0763 42.6557 26.5753 41.226C19.6309 37.2562 11.9867 24.0217 12.2046 16.1273C12.2802 13.3855 13.8955 12.3112 16.0085 11.0913L20.7493 19.3024L20.7491 19.3026Z" fill="#1B1C1F"/>
<path fill-rule="evenodd" clip-rule="evenodd" d="M22.7089 19.0795C22.204 19.371 21.5543 19.1971 21.2628 18.6921L16.7936 10.9512C16.502 10.4462 16.676 9.79658 17.1809 9.50503L19.5298 8.14891C20.0348 7.85736 20.6846 8.03151 20.9761 8.53642L25.4453 16.2773C25.7368 16.7822 25.5627 17.4319 25.0579 17.7234L22.7089 19.0795V19.0795Z" fill="#1B1C1F"/>
<path fill-rule="evenodd" clip-rule="evenodd" d="M34.9184 40.2271C34.4136 40.5186 33.7639 40.3447 33.4723 39.8397L29.0031 32.0987C28.7116 31.5938 28.8855 30.9441 29.3905 30.6526L31.7394 29.2965C32.2443 29.005 32.8941 29.1791 33.1856 29.684L37.6548 37.4249C37.9463 37.9298 37.7723 38.5795 37.2674 38.871L34.9184 40.2271Z" fill="#1B1C1F"/>
<path d="M25 0H25.0003V0.00582513C31.9064 0.00592807 38.1562 2.80257 42.6765 7.32335C47.1967 11.8441 49.9936 18.0934 49.9937 24.9995H49.9996V25.0006H49.9937C49.9936 31.9067 47.197 38.1565 42.6762 42.6768C38.1554 47.197 31.9062 49.9939 25.0001 49.994V49.9999H24.9989V49.994C18.0928 49.9939 11.8431 47.1973 7.32279 42.6765C2.80252 38.1557 0.00569153 31.9065 0.00551995 25.0004H-0.000305176V24.9992H0.00551995C0.0056229 18.0931 2.80227 11.8434 7.32304 7.32309C11.8438 2.80283 18.0931 0.00599671 24.9992 0.00582513V0H25V0ZM25.0003 2.98188V2.98771H24.9992V2.98188C18.9259 2.98204 13.4227 5.44859 9.43605 9.4355C5.4494 13.4224 2.98217 18.9264 2.98217 24.9995H2.98799V25.0007H2.98217C2.98233 31.0739 5.44888 36.5771 9.43579 40.5638C13.4227 44.5504 18.9267 47.0177 24.9998 47.0177V47.0118H25.0009V47.0177C31.0742 47.0175 36.5774 44.5509 40.5641 40.564C44.5507 36.5771 47.0179 31.0731 47.0179 25H47.0121V24.9989H47.0179C47.0178 18.9257 44.5512 13.4224 40.5643 9.43576C36.5774 5.44911 31.0734 2.98188 25.0003 2.98188V2.98188Z" fill="#1B1C1F"/>
</g>
<defs>
<clipPath id="clip0_547:4545">
<rect width="50" height="50" fill="white"/>
</clipPath>
</defs>
</svg>
