<svg width="361" height="249" viewBox="0 0 361 249" fill="none" xmlns="http://www.w3.org/2000/svg">
<path fill-rule="evenodd" clip-rule="evenodd" d="M162.179 175.633C161.241 175.564 160.397 176.114 159.455 176.027C158.358 175.926 157.292 175.644 156.223 175.409C153.839 174.884 151.637 173.854 149.519 172.726C145.423 170.545 141.705 167.324 138.678 163.95C135.365 160.257 132.616 156.127 129.547 152.26C127.035 149.095 123.987 146.262 119.921 144.957C115.666 143.591 111.206 145.32 106.945 144.186C103.028 143.143 99.2265 139.415 97.4813 136.073C96.5213 134.233 96.0937 132.062 96.331 130.025C96.5719 127.956 97.9759 126.257 99.3388 124.693C102.113 121.509 106.083 119.902 110.082 118.46C119.565 115.04 129.776 112.76 139.928 111.97C150.249 111.166 161.032 110.484 171.088 113.397C172.963 113.94 174.99 114.168 176.715 115.1C179.068 116.371 181.299 117.973 183.516 119.441C185.197 120.553 186.026 122.396 187.032 124.008C188.325 126.079 189.673 128.098 190.501 130.384C192.057 134.684 192.819 139.16 192.984 143.689C193.151 148.24 193.115 153.152 191.333 157.443C190.246 160.061 189.109 162.5 187.294 164.754C185.369 167.144 183.005 168.895 180.328 170.53C174.812 173.901 168.481 174.562 162.179 175.634" fill="#010101"/>
<path fill-rule="evenodd" clip-rule="evenodd" d="M256.525 160.402C265.708 159.773 275.392 157.109 283.304 152.835C287.249 150.703 290.978 148.264 294.347 145.424C296.066 143.975 297.848 142.587 299.511 141.082C301.278 139.484 302.77 137.643 304.672 136.168C306.317 134.891 307.581 133.297 309.315 132.121C311.299 130.774 313.374 129.535 315.386 128.225C317.158 127.071 318.964 125.954 320.65 124.696C322.283 123.478 324.444 121.897 325.272 120.073C326.995 116.281 322.841 113.202 319.932 111.17C316.263 108.605 311.955 106.912 307.732 105.276C298.384 101.653 288.483 99.1064 278.35 98.4232C275.986 98.2641 273.618 98.1753 271.252 98.0339C269.001 97.8999 266.846 98.5125 264.714 99.0715C262.683 99.6046 260.584 100.028 258.726 100.978C256.634 102.049 254.479 103.593 252.744 105.101C251.227 106.419 250.558 108.484 249.533 110.115C248.185 112.262 247.071 114.322 246.306 116.705C244.845 121.256 243.29 125.765 241.941 130.347C240.668 134.674 239.553 138.792 239.265 143.287C239.032 146.918 239.323 151.219 241.905 154.169C243.469 155.958 245.414 157.203 247.639 158.22C250.4 159.483 253.538 159.785 256.526 160.403" fill="#010101"/>
<path fill-rule="evenodd" clip-rule="evenodd" d="M160.323 173.18C150.787 173.18 141.866 167.436 136.575 160.206C131.475 153.234 127.937 143.725 118.382 141.081C113.896 139.841 109.034 141.227 104.486 140.017C100.97 139.082 97.7802 135.364 97.3955 131.958C97.2266 130.465 97.2943 128.575 98.2132 127.292C99.42 125.608 102.022 124.059 103.847 123.026C107.93 120.715 112.811 119.418 117.402 118.358C127.717 115.976 138.155 114.606 148.683 113.447C151.128 113.178 153.458 113.184 155.91 113.39C158.469 113.605 161.074 113.622 163.603 114.073C166.092 114.517 168.521 115.272 170.997 115.783C173.42 116.283 175.213 117.481 177.169 118.865C178.845 120.051 180.582 121.133 181.887 122.711C183.435 124.583 184.361 126.85 185.614 128.894C186.641 130.568 186.761 132.598 187.152 134.456C187.652 136.83 188.261 139.155 188.345 141.588C188.642 150.157 188.133 160.818 179.684 166.106C178.348 166.942 177.143 167.946 175.71 168.637C174.077 169.424 172.333 170.03 170.659 170.735C167.391 172.114 163.793 172.49 160.324 173.18" fill="#7FFF00"/>
<path fill-rule="evenodd" clip-rule="evenodd" d="M267.477 155.946C271.943 155.349 276.418 153.699 280.538 152.074C282.555 151.279 284.248 149.954 286.043 148.828C288.079 147.55 290.194 146.363 292.083 144.902C295.764 142.052 298.982 138.717 301.772 135.127C304.115 132.111 307.318 129.359 311.056 127.852C315.686 125.984 329.819 119.934 322.187 113.851C318.747 111.11 314.079 109.308 309.945 107.645C305.202 105.738 300.266 104.154 295.333 102.721C286.21 100.07 276.803 98.3372 267.332 100.07C265.227 100.455 263.238 100.858 261.445 101.972C259.813 102.987 257.666 104.233 256.472 105.675C255.188 107.227 254.209 109.3 253.299 111.058C252.182 113.216 251.424 115.514 250.625 117.784C249.095 122.127 247.528 126.568 246.949 131.123C246.678 133.256 246.594 135.405 246.569 137.553C246.544 139.682 246.4 141.88 246.823 143.988C247.165 145.694 247.792 147.499 248.502 149.11C249.209 150.71 251.141 152.075 252.421 153.314C253.731 154.584 256.63 155.388 258.461 155.779C260.795 156.277 263.282 156.034 265.65 155.985C266.258 155.971 266.868 155.958 267.478 155.945" fill="#7FFF00"/>
<path fill-rule="evenodd" clip-rule="evenodd" d="M110.857 121.54C111.517 120.532 113.146 120.609 114.259 120.579C116.147 120.529 118.033 120.44 119.92 120.369C123.886 120.219 126.874 121.253 130.456 122.676C133.706 123.966 136.695 125.706 139.439 127.735C140.882 128.802 142.311 129.886 143.791 130.912C145.214 131.897 146.842 132.65 148.096 133.826C146.541 133.093 150.197 130.757 150.668 130.326C152.639 128.524 153.989 126.274 155.191 124.006C156.321 121.875 157.083 119.532 157.456 117.187C157.515 116.817 157.584 113.871 157.955 113.837C158.177 113.817 158.966 117.338 159.052 117.673C159.339 118.783 159.501 119.911 159.746 121.028C160.045 122.388 159.745 123.977 159.534 125.354C159.358 126.503 158.627 127.434 157.945 128.383C156.991 129.712 156.114 131.074 155.106 132.373C154.749 132.833 154.448 133.316 153.946 133.658C153.616 133.882 152.786 134.247 152.745 134.681C152.678 135.39 154.301 136.133 154.826 136.456C156.056 137.212 157.158 138.165 158.295 139.028C159.362 139.838 160.278 140.954 161.508 139.808C163.459 137.99 165.56 136.276 167.026 134.082C168.731 131.532 169.905 128.674 170.575 125.764C170.932 124.215 171.316 122.662 171.602 121.102C171.817 119.933 172.738 118.297 172.558 117.141C172.483 118.312 173.456 119.527 173.754 120.653C174.131 122.078 174.473 123.513 174.696 124.965C175.135 127.822 175.156 130.794 174.383 133.608C173.76 135.876 172.743 138.022 170.775 139.603C169.682 140.481 168.424 141.19 167.162 141.851C166.525 142.185 164.95 142.556 165.22 143.48C165.557 144.633 166.585 145.9 167.19 146.968C167.712 147.89 167.979 148.545 169.3 148.351C172.148 147.93 174.656 146.131 177.308 145.198C178.527 144.77 179.364 143.834 180.376 143.131C181.343 142.46 182.423 141.987 183.208 141.117C184.141 140.084 185.246 139.133 186.105 138.051C186.422 137.652 187.806 136.61 187.631 136.071C186.902 136.482 187.155 137.481 187.011 138.117C186.78 139.141 186.058 140.013 185.517 140.914C184.514 142.584 183.789 144.414 182.447 145.902C179.773 148.87 175.959 152.275 171.407 152.446C172.866 154.921 174.324 157.396 175.783 159.871C176.475 161.046 177.168 162.22 177.86 163.395C178.536 164.544 179.784 165.268 180.743 166.2C178.43 167.061 176.062 167.818 173.858 168.898C172.46 169.583 170.747 170.478 170.042 168.679C168.566 164.92 168.645 159.957 165.644 156.789C164.444 155.522 162.287 155.351 160.651 155.946C159.561 156.342 158.342 156.356 157.196 156.649C155.861 156.99 154.404 156.903 153.037 156.829C150.299 156.681 147.597 156.305 144.885 155.949C143.365 155.75 141.834 155.606 140.321 155.364C139.145 155.175 137.862 154.431 136.655 154.586C137.658 154.628 138.545 154.1 139.535 154.063C140.808 154.015 142.026 153.641 143.263 153.4C145.391 152.987 147.58 152.763 149.637 152.092C151.61 151.45 153.4 150.222 155.56 150.141C156.56 150.103 157.475 149.654 158.476 149.616L162.101 149.479C161.196 148.512 160.291 147.544 159.386 146.576C158.483 145.61 157.754 146.142 156.504 146.298C153.466 146.678 150.796 148.246 147.655 148.364C144.411 148.486 141.131 148.703 137.914 148.175C136.61 147.962 135.332 147.634 134.082 147.236C133.457 147.036 132.829 147.362 132.197 147.287C131.57 147.213 130.999 146.866 130.347 146.942C130.896 145.952 132.983 146.339 133.941 146.326C136.021 146.297 138.24 145.656 140.307 145.388C145.075 144.769 149.622 142.897 154.458 142.715C153.382 141.889 152.349 141.019 151.296 140.17C150.627 139.631 149.219 138.096 148.308 138.011C147.554 137.939 146.717 138.558 146.082 138.851C144.97 139.365 143.742 139.748 142.594 140.195C141.296 140.7 139.974 141.162 138.621 141.532C137.304 141.891 135.903 141.755 134.549 141.806C131.388 141.925 128.228 141.63 125.067 141.749C126.053 141.897 127.242 140.844 127.962 140.361C129.245 139.498 130.973 139.338 132.346 138.525C133.829 137.645 135.422 136.992 136.969 136.218C138.517 135.444 139.642 134.563 141.246 134.502C140.423 134.669 139.415 133.172 138.941 132.725C137.433 131.3 135.873 129.703 133.832 128.902C130.307 127.519 126.58 128.984 123.238 130.097C121.373 130.718 119.6 131.562 117.738 132.168C115.665 132.842 113.637 133.229 111.708 134.247C110.136 135.077 108.654 136.085 107.001 136.783C105.867 137.261 104.007 137.752 103.384 138.832C103.215 138.23 103.886 137.354 104.336 136.964C105.237 136.185 105.719 135.107 106.621 134.321C108.379 132.788 110.75 132.052 112.939 131.176C115.223 130.262 117.317 128.952 119.726 128.3C121.007 127.954 122.197 127.557 123.418 127.062C123.968 126.839 124.509 126.665 125.095 126.532C125.715 126.39 126.46 125.875 127.099 125.907C126.252 125.202 125.511 124.359 124.468 123.876C123.142 123.262 121.673 122.957 120.245 122.606C117.19 121.853 114.009 121.679 110.857 121.539" fill="#3F7F00"/>
<path fill-rule="evenodd" clip-rule="evenodd" d="M314.563 112.14C311.862 110.926 308.921 109.967 305.878 110.184C304.459 110.286 303.035 110.397 301.643 110.672C300.037 110.989 298.707 111.771 297.251 112.418C294.513 113.635 292.006 115.233 289.65 116.982C288.465 117.86 287.256 118.726 286.154 119.692C285.242 120.492 284.348 121.732 283.006 121.935C284.325 121.859 282.546 119.374 282.284 118.986C281.228 117.424 279.933 115.742 279.429 113.963C278.685 111.34 278.033 108.807 277.792 106.1C277.644 104.439 276.595 101.873 277.688 100.37C276.582 102.452 276.277 104.832 275.741 107.075C275.237 109.187 274.736 111.418 275.098 113.591C275.421 115.528 276.408 117.169 277.183 118.963C277.585 119.894 278.105 122.182 279.363 122.477C277.085 124.359 274.808 126.241 272.53 128.124C272.316 127.17 271.304 126.576 270.672 125.861C269.873 124.957 269.118 123.917 268.525 122.89C267.393 120.928 267.116 118.716 266.868 116.551C266.574 113.987 266.254 111.426 265.958 108.863C265.829 107.745 265.652 106.628 265.65 105.502C265.648 104.578 265.913 103.576 265.426 102.706C265.075 103.242 265.209 103.929 264.969 104.505C264.706 105.134 264.338 105.712 264.092 106.351C263.528 107.818 263.091 109.325 262.712 110.841C262.005 113.677 261.45 116.658 261.842 119.578C262.214 122.347 263.242 125.145 265.219 127.316C265.63 127.766 266.061 128.21 266.5 128.638C266.98 129.106 267.836 129.225 268.234 129.71C268.405 129.918 267.876 130.804 267.791 130.989C267.147 132.405 266.434 133.851 265.528 135.143C264.639 136.411 262.221 134.277 261.311 133.668C258.749 131.954 256.434 129.758 254.581 127.405C253.698 126.282 252.763 125.09 252.055 123.867C251.756 123.352 251.836 123 251.746 122.454C251.67 121.996 250.886 121.705 251.292 121.199C250.812 121.822 251.256 122.663 251.397 123.321C251.632 124.419 251.831 125.524 252.094 126.618C252.633 128.857 253.611 130.965 254.553 133.085C255.236 134.623 257.061 135.805 258.29 136.995C258.997 137.681 259.986 138.014 260.675 138.697C260.928 138.947 261.733 139.787 261.934 139.055C258.642 140.566 255.349 142.076 252.057 143.587C250.39 144.352 248.723 145.117 247.056 145.881C245.63 146.536 244.581 147.631 243.44 148.616C245.498 149.896 247.557 151.177 249.616 152.458C250.136 152.781 250.827 153.525 251.483 153.003C252.335 152.324 253.282 151.757 254.208 151.168C258.239 148.603 262.305 145.702 266.655 143.601C268.133 142.887 269.429 143.452 270.906 143.865C273.076 144.473 275.254 145.082 277.528 145.227C279.657 145.364 281.735 145.112 283.839 144.876C285.624 144.677 288.251 144.93 289.87 144.195C289.261 143.859 288.51 144.02 287.881 143.737C286.802 143.252 285.759 142.609 284.585 142.333C282.581 141.863 280.738 141.047 278.916 140.131C277.221 139.28 275.681 138.566 273.899 137.899C272.947 137.543 271.191 136.448 270.166 137.087C270.95 136.111 271.734 135.134 272.518 134.158C273.094 133.442 273.492 133.776 274.29 134.154C275.517 134.735 276.788 135.042 278.073 135.479C279.38 135.924 280.54 136.616 281.889 136.982C284.305 137.639 286.704 137.497 289.177 137.355C290.383 137.287 291.591 137.306 292.782 137.097C293.565 136.96 294.97 136.319 295.716 136.797C292.585 135.391 289.065 134.969 285.897 133.709C284.174 133.023 282.324 132.634 280.698 131.748C279.477 131.083 278.231 131.122 276.985 130.562C278.885 129.091 280.784 127.62 282.684 126.149C283.667 127.321 285.153 127.896 286.468 128.685C288.08 129.652 289.46 130.475 291.401 130.765C293.302 131.049 295.191 131.39 297.089 131.695C298.137 131.863 299.736 131.392 300.64 132.036C300.18 131.928 300.261 131.486 299.923 131.266C299.197 130.794 298.495 130.382 297.807 129.859C296.317 128.727 294.748 127.778 293.295 126.592C292.281 125.764 291.052 125.072 290.207 124.089C290.041 123.895 288.774 122.355 288.595 123.139C289.009 122.111 290.236 121.618 291.121 120.995C292.259 120.192 293.281 119.31 294.464 118.552C296.386 117.321 298.223 116.836 300.524 117.619C303.076 118.488 305.076 120.104 307.491 121.115C308.319 121.462 308.897 122.203 309.24 122.954C309.783 124.147 308.582 125.205 308.048 126.21C309.101 126.021 310.703 125.133 311.445 124.431C312.42 123.509 312.689 122.372 311.812 121.282C310.834 120.065 309.373 119.065 308.021 118.221C306.693 117.391 305.153 116.29 303.536 116.036C303.107 115.968 301.197 116.183 301.254 115.502C301.305 114.906 302.139 114.579 302.652 114.41C303.432 114.154 303.898 113.724 304.548 113.286C305.588 112.586 307.846 112.748 309.089 112.503C310.925 112.143 312.693 112.148 314.563 112.14" fill="#3F7F00"/>
<path fill-rule="evenodd" clip-rule="evenodd" d="M196.694 134.693C187.529 134.693 178.022 134.288 169.414 131.149C165.141 129.591 160.955 127.481 157.464 124.733C155.829 123.445 155.024 122.047 153.945 120.387C152.769 118.577 152.534 117.202 152.445 115.098C152.354 112.973 152.659 111.215 153.364 109.183C154.062 107.17 154.458 105.415 156.009 103.774C159.122 100.479 161.82 96.9784 165.439 94.0911C167.093 92.7716 168.927 91.8542 170.891 90.9734C173.024 90.0168 175.084 88.9559 177.3 88.1575C181.795 86.5389 186.628 84.8529 191.487 84.7036C196.645 84.5443 201.62 84.1151 206.787 84.5156C211.961 84.9171 217.116 85.3302 222.199 86.3462C226.902 87.2871 231.419 88.782 235.794 90.598C239.712 92.2245 243.275 95.7698 245.841 98.8368C248.592 102.124 250.49 106.175 251.608 110.166C252.677 113.981 252.136 118.099 249.2 121.123C247.948 122.412 246.61 124.144 245.056 125.124C243.004 126.419 240.825 127.575 238.634 128.663C234.507 130.713 229.936 131.91 225.372 132.852C220.799 133.797 216.16 134.476 211.495 134.92C206.569 135.389 201.621 134.854 196.694 134.694" fill="#010101"/>
<path d="M196.694 134.693C187.529 134.693 178.022 134.288 169.414 131.149C165.141 129.591 160.955 127.481 157.464 124.733C155.829 123.445 155.024 122.047 153.945 120.387C152.769 118.577 152.534 117.202 152.445 115.098C152.354 112.973 152.659 111.215 153.364 109.183C154.062 107.17 154.458 105.415 156.009 103.774C159.122 100.479 161.82 96.9784 165.439 94.0911C167.093 92.7716 168.927 91.8542 170.891 90.9734C173.024 90.0168 175.084 88.9559 177.3 88.1575C181.795 86.5389 186.628 84.8529 191.487 84.7036C196.645 84.5443 201.62 84.1151 206.787 84.5156C211.961 84.9171 217.116 85.3302 222.199 86.3462C226.902 87.2871 231.419 88.782 235.794 90.598C239.712 92.2245 243.275 95.7698 245.841 98.8368C248.592 102.124 250.49 106.175 251.608 110.166C252.677 113.981 252.136 118.099 249.2 121.123C247.948 122.412 246.61 124.144 245.056 125.124C243.004 126.419 240.825 127.575 238.634 128.663C234.507 130.713 229.936 131.91 225.372 132.852C220.799 133.797 216.16 134.476 211.495 134.92C206.569 135.389 201.621 134.854 196.694 134.694" stroke="#010101" stroke-width="0.75" stroke-miterlimit="10" stroke-linecap="round" stroke-linejoin="round"/>
<path fill-rule="evenodd" clip-rule="evenodd" d="M196.694 133.127C187.426 133.127 176.936 132.668 168.548 128.667C164.769 126.864 160.7 124.53 158.173 121.334C157.03 119.887 156.322 118.339 155.995 116.583C155.614 114.543 155.016 112.474 155.935 110.525C156.763 108.769 157.104 106.884 158.243 105.242C159.432 103.526 160.653 101.593 162.289 100.198C164.002 98.7375 165.749 97.3095 167.414 95.8047C169.177 94.2122 171.376 93.1366 173.488 91.9842C177.434 89.831 181.79 88.4843 186.242 87.4991C190.933 86.4605 196.079 85.9264 200.901 85.7348C203.26 85.6408 205.581 85.9995 207.921 86.2047C210.572 86.437 213.216 86.6443 215.847 87.038C220.667 87.7591 225.515 88.6859 229.971 90.5582C233.993 92.2484 238.172 94.4831 241.109 97.5702C244.027 100.636 245.845 104.446 247.424 108.195C248.239 110.13 248.52 112.163 248.707 114.214C248.876 116.053 247.76 117.962 246.721 119.469C244.371 122.877 240.684 125.29 236.853 127.179C232.752 129.201 228.258 130.393 223.775 131.485C221.575 132.021 219.373 132.59 217.122 132.921C214.537 133.301 211.903 133.289 209.295 133.428C205.051 133.655 200.93 133.275 196.694 133.127" fill="#E1EDC2"/>
<path d="M196.689 133.127C187.421 133.127 176.931 132.668 168.542 128.667C164.764 126.864 160.695 124.53 158.168 121.334C157.025 119.887 156.317 118.339 155.99 116.583C155.609 114.543 155.011 112.473 155.93 110.525C156.758 108.769 157.099 106.884 158.238 105.242C159.427 103.526 160.648 101.593 162.284 100.198C163.997 98.7378 165.744 97.3097 167.409 95.8048C169.171 94.2123 171.371 93.1369 173.483 91.9842C177.429 89.8309 181.784 88.4842 186.237 87.4991C190.928 86.4606 196.074 85.9263 200.896 85.7349C203.255 85.641 205.575 85.9994 207.916 86.2048C210.567 86.4372 213.211 86.6442 215.842 87.038C220.661 87.759 225.51 88.686 229.967 90.5582C233.988 92.2483 238.167 94.4831 241.105 97.5701C244.022 100.635 245.84 104.446 247.419 108.195C248.234 110.13 248.515 112.163 248.703 114.214C248.871 116.053 247.755 117.962 246.716 119.469C244.366 122.877 240.68 125.29 236.848 127.179C232.747 129.201 228.254 130.393 223.77 131.485C221.57 132.021 219.368 132.59 217.117 132.921C214.532 133.302 211.898 133.289 209.29 133.428C205.046 133.655 200.925 133.275 196.689 133.127Z" fill="#7FFF00"/>
<path d="M196.689 133.127C187.421 133.127 176.931 132.668 168.542 128.667C164.764 126.864 160.695 124.53 158.168 121.334C157.025 119.887 156.317 118.339 155.99 116.583C155.609 114.543 155.011 112.473 155.93 110.525C156.758 108.769 157.099 106.884 158.238 105.242C159.427 103.526 160.648 101.593 162.284 100.198C163.997 98.7378 165.744 97.3097 167.409 95.8048C169.171 94.2123 171.371 93.1369 173.483 91.9842C177.429 89.8309 181.784 88.4842 186.237 87.4991C190.928 86.4606 196.074 85.9263 200.896 85.7349C203.255 85.641 205.575 85.9994 207.916 86.2048C210.567 86.4372 213.211 86.6442 215.842 87.038C220.661 87.759 225.51 88.686 229.967 90.5582C233.988 92.2483 238.167 94.4831 241.105 97.5701C244.022 100.635 245.84 104.446 247.419 108.195C248.234 110.13 248.515 112.163 248.703 114.214C248.871 116.053 247.755 117.962 246.716 119.469C244.366 122.877 240.68 125.29 236.848 127.179C232.747 129.201 228.254 130.393 223.77 131.485C221.57 132.021 219.368 132.59 217.117 132.921C214.532 133.302 211.898 133.289 209.29 133.428C205.046 133.655 200.925 133.275 196.689 133.127" stroke="#010101" stroke-width="0.75" stroke-miterlimit="10" stroke-linecap="round" stroke-linejoin="round"/>
<path fill-rule="evenodd" clip-rule="evenodd" d="M197.552 133.521V127.361C197.552 126.022 197.773 125.29 196.009 126.007C194.44 126.646 192.116 126.163 190.486 125.962C188.1 125.669 185.736 125.266 183.376 124.832C178.804 123.99 174.248 123.081 169.774 121.873C165.997 120.854 162.084 119.667 159.232 117.074C161.203 116.947 163.07 117.879 164.902 118.393C166.804 118.926 168.755 119.296 170.692 119.703C174.871 120.583 178.937 121.283 183.238 121.35C186.747 121.404 190.558 121.142 193.99 121.894C194.786 122.069 196.264 122.543 197.012 122.033C197.935 121.403 197.464 118.425 197.552 117.465C194.012 117.465 190.511 116.793 186.978 116.652C183.77 116.524 180.536 116.174 177.461 115.302C174.202 114.378 170.867 113.638 167.727 112.396C166.327 111.842 165.092 111.023 163.826 110.261C162.584 109.514 161.163 109.04 160.093 108.066C161.921 108.621 163.796 109.155 165.657 109.605C167.545 110.061 169.524 110.132 171.43 110.53C175.647 111.412 179.94 112.188 184.209 112.832C187.931 113.394 191.864 113.916 195.636 114.054C196.978 114.102 197.323 113.746 197.682 112.626C197.998 111.642 198.117 110.619 198.412 109.633C195.471 109.633 192.623 108.881 189.741 108.452C186.991 108.042 184.323 107.325 181.906 106.037C179.657 104.838 177.682 103.294 176.053 101.441C175.243 100.521 174.507 99.546 173.857 98.5263C173.217 97.5228 172.766 96.2623 171.718 95.5344C172.842 95.3251 174.135 96.9912 174.819 97.599C176.41 99.0145 178.58 99.8494 180.526 100.773C184.963 102.877 188.977 104.896 193.999 105.586C195.728 105.823 197.961 106.194 198.996 104.542C200.042 102.873 200.799 100.982 201.747 99.2579C202.35 98.1593 202.399 98.3347 201.204 97.7771C200.132 97.2764 199.071 96.7563 198.014 96.2305C195.772 95.1152 193.535 93.9848 191.404 92.6987C190.079 91.8994 188.773 90.9867 188.103 89.6542C188.038 89.5252 187.49 88.5691 187.707 88.4459C188.045 88.2543 188.994 89.273 189.252 89.4364C190.873 90.4687 192.904 91.1866 194.681 91.9808C196.676 92.8721 199.026 93.4052 201.207 93.7759C202.659 94.0234 205.955 94.6228 206.961 93.3999C208.198 91.8952 209.366 90.4023 211.024 89.2312C211.496 88.8981 213.724 87.3092 213.89 88.6119C214.111 90.3564 212.239 91.7124 212.147 93.4161C212.08 94.6719 211.431 95.6817 211.298 96.9129C211.228 97.565 210.926 99.7371 211.603 100.162C212.284 100.588 213.502 100.208 214.218 100.056C215.35 99.8175 216.464 99.899 217.61 99.7512C219.044 99.5669 220.718 99.7538 222.095 99.4029C222.761 99.2327 223.337 98.8897 224.027 98.7618C224.891 98.6015 225.587 98.685 226.363 98.2344C227.727 97.4434 229.145 97.0742 230.665 96.6001C231.752 96.2618 233.504 95.2896 234.588 96.1526C236.682 97.8183 231.753 99.7622 230.827 100.224C227.824 101.725 224.679 102.302 221.347 102.891C219.692 103.184 218.042 103.517 216.365 103.686C215.431 103.78 213.179 103.374 212.46 104.008C211.394 104.949 210.616 106.702 209.828 107.86C208.893 109.234 207.958 110.609 207.022 111.982C211.971 111.982 216.997 113.037 221.903 111.914C226.297 110.91 230.095 108.5 234.423 107.327C236.427 106.784 237.986 105.427 239.928 104.764C242.399 103.919 240.394 106.4 239.817 107.143C237.176 110.538 234.382 113.776 230.183 115.573C228.108 116.462 226.26 117.553 223.921 117.725C221.463 117.906 219.139 118.703 216.669 118.658C214.347 118.615 211.981 118.781 209.692 118.349C207.506 117.935 207.759 118.94 207.876 120.564C207.953 121.635 207.304 122.965 207.939 123.965C208.734 125.217 212.934 124.662 214.258 124.6C216.526 124.495 218.815 124.135 221.085 124.171C223.322 124.206 225.484 123.335 227.504 122.56C230.792 121.297 234.019 119.957 237.266 118.61C238.841 117.956 240.443 117.361 242.035 116.74C243.009 116.36 244.706 116.397 245.342 115.507C241.331 119.156 236.63 122.146 231.553 124.437C228.871 125.647 226.066 126.696 223.138 127.293C220.162 127.899 217.112 128.138 214.122 128.687C212.848 128.921 211.559 129.141 210.256 129.15C209.454 129.155 208.835 129.135 208.415 129.849C207.808 130.879 208.033 132.282 207.224 133.214C206.74 133.772 205.916 133.587 205.257 133.442C203.787 133.117 202.603 133.051 201.092 133.117C200.641 133.138 197.333 132.731 197.55 133.521" fill="#3F7F00"/>
<path fill-rule="evenodd" clip-rule="evenodd" d="M168.705 161.715C166.517 161.218 164.257 160.833 162.201 159.955C160.209 159.105 158.669 157.704 157.168 156.276C153.777 153.05 152.171 149.371 150.95 145.096C150.378 143.096 150.144 141.083 149.847 139.041C149.534 136.894 149.159 134.846 149.556 132.687C150.393 128.126 151.433 123.626 152.462 119.1C153.434 114.824 155.257 110.767 157.331 106.826C158.325 104.936 159.524 103.145 160.543 101.269C161.571 99.3782 162.457 97.4766 163.947 95.836C166.852 92.6379 169.916 89.8501 173.582 87.3969C175.226 86.2973 176.686 85.428 178.754 85.228C180.989 85.0113 183.034 84.6051 185.226 85.2698C187.052 85.8237 189.777 86.1579 191.29 87.2931C193.043 88.6067 195.014 89.6938 196.551 91.2321C199.423 94.1064 201.523 97.7149 202.577 101.471C203.814 105.881 204.199 110.473 204.594 114.996C205.003 119.661 205.344 124.397 204.852 129.068C204.375 133.606 203.256 138.335 201.527 142.619C199.92 146.599 197.236 149.957 194.801 153.526C192.663 156.657 188.837 159.478 185.204 161.057C181.037 162.869 176.716 163.695 172.222 162.551C171.054 162.256 169.876 161.999 168.705 161.715" fill="#010101"/>
<path d="M168.705 161.715C166.517 161.218 164.257 160.833 162.201 159.955C160.209 159.105 158.669 157.704 157.168 156.276C153.777 153.05 152.171 149.371 150.95 145.096C150.378 143.096 150.144 141.083 149.847 139.041C149.534 136.894 149.159 134.846 149.556 132.687C150.393 128.126 151.433 123.626 152.462 119.1C153.434 114.824 155.257 110.767 157.331 106.826C158.325 104.936 159.524 103.145 160.543 101.269C161.571 99.3782 162.457 97.4766 163.947 95.836C166.852 92.6379 169.916 89.8501 173.582 87.3969C175.226 86.2973 176.686 85.428 178.754 85.228C180.989 85.0113 183.034 84.6051 185.226 85.2698C187.052 85.8237 189.777 86.1579 191.29 87.2931C193.043 88.6067 195.014 89.6938 196.551 91.2321C199.423 94.1064 201.523 97.7149 202.577 101.471C203.814 105.881 204.199 110.473 204.594 114.996C205.003 119.661 205.344 124.397 204.852 129.068C204.375 133.606 203.256 138.335 201.527 142.619C199.92 146.599 197.236 149.957 194.801 153.526C192.663 156.657 188.837 159.478 185.204 161.057C181.037 162.869 176.716 163.695 172.222 162.551C171.054 162.256 169.876 161.999 168.705 161.715" stroke="#010101" stroke-width="0.75" stroke-miterlimit="10" stroke-linecap="round" stroke-linejoin="round"/>
<path fill-rule="evenodd" clip-rule="evenodd" d="M169.568 158.841C167.417 158.352 165.144 158.074 163.12 157.213C161.156 156.378 159.598 154.95 158.227 153.454C155.377 150.345 153.459 146.599 152.459 142.665C151.316 138.172 151.416 133.514 152.091 128.967C152.757 124.483 153.741 119.862 155.18 115.528C156.615 111.209 159.094 107.221 161.267 103.188C162.283 101.303 163.134 99.2652 164.549 97.5902C165.907 95.9815 167.492 94.483 169 92.9902C170.542 91.4645 172.305 90.3488 174.19 89.2058C175.018 88.704 175.841 88.1213 176.776 87.7903C177.859 87.406 179.099 87.4389 180.243 87.3543C184.968 87.0045 189.093 88.6247 192.875 91.0933C195.921 93.0822 198.394 96.4842 199.833 99.6024C201.454 103.116 201.893 106.955 202.338 110.708C203.303 118.832 203.545 127.026 201.807 135.093C201.02 138.748 199.24 142.302 197.338 145.582C195.491 148.766 193.174 151.745 190.354 154.28C187.962 156.431 184.78 158.748 181.446 159.496C179.641 159.901 177.403 160.03 175.547 159.996C173.494 159.958 171.548 159.257 169.569 158.841" fill="#7FFF00"/>
<path fill-rule="evenodd" clip-rule="evenodd" d="M169.568 159.759C170.286 155.713 171.004 151.666 171.721 147.62C171.213 147.505 171.495 147.796 171.225 147.976C170.955 148.157 170.463 148.054 170.161 148.025C169.168 147.929 168.239 147.997 167.303 147.603C165.109 146.68 162.903 144.888 161.119 143.422C159.164 141.815 157.426 139.932 155.983 137.928C155.235 136.889 154.562 135.798 154.017 134.657C153.78 134.164 153.638 133.744 153.638 133.201C153.638 132.74 153.097 132.433 153.207 131.955C156.146 134.628 159.075 137.349 162.605 139.387C163.656 139.993 172.316 141.81 172.151 142.529C172.725 140.179 173.299 137.829 173.873 135.48C173.51 135.549 173.312 135.306 173.03 135.165C172.472 134.886 171.792 134.956 171.206 134.666C170.233 134.186 169.367 133.831 168.308 133.539C166.272 132.979 164.424 131.604 162.941 130.259C161.187 128.669 160.002 126.627 158.878 124.645C158.315 123.651 157.953 122.576 157.404 121.577C156.9 120.66 156.117 119.725 156.22 118.642C157.001 119.352 157.857 119.84 158.575 120.622C159.357 121.474 160.396 122.075 161.358 122.74C163.829 124.449 166.309 126.15 168.864 127.756C170.321 128.672 172.067 129.727 173.831 130.092C174.804 130.293 174.943 129.631 175.047 128.874C175.226 127.579 175.532 126.309 175.824 125.032C176.118 123.749 175.692 124.105 174.79 123.487C173.959 122.916 172.898 122.648 172.175 121.944C170.361 120.175 168.639 118.22 167.681 115.939C166.719 113.65 166.738 111.164 166.413 108.763C166.028 105.934 165.693 103.091 165.693 100.237C166.169 101.1 166.07 102.171 166.433 103.085C166.796 103.999 167.174 104.907 167.588 105.802C168.56 107.897 169.358 110.066 170.557 112.069C171.59 113.792 173.033 115.992 174.872 117.097C176.835 118.277 177.831 116.824 178.313 115.343C178.988 113.272 179.663 111.201 180.337 109.13C180.599 108.327 181.198 107.374 181.07 106.518C180.93 105.572 180.126 104.51 179.641 103.679C177.286 99.6405 176.026 95.4165 176.026 90.8375C177.058 92.7146 177.663 94.716 178.786 96.5645C179.25 97.329 179.727 98.1779 180.488 98.7377C181.218 99.2755 182.12 99.6028 182.883 100.107C183.278 100.368 184.12 100.987 184.549 100.435C185.077 99.7532 185.392 98.7643 185.845 98.0171C186.844 96.3667 187.729 94.6473 188.634 92.9587C189.235 91.8366 190.805 91.7374 189.974 93.2313C189.6 93.9043 189.678 94.8587 189.438 95.6017C189.07 96.7343 188.689 97.8563 188.364 99.0003C187.799 100.995 186.916 102.883 186.45 104.899C186.119 106.336 185.906 107.75 185.554 109.184C185.514 109.345 185.218 110.322 185.553 110.386C186.549 110.576 187.715 110.448 188.71 110.31C190.974 109.996 192.981 109.39 194.549 107.833C195.588 106.802 196.824 105.77 198.397 105.493C200.065 105.199 199.067 108.301 198.775 108.921C197.363 111.911 193.636 114.059 190.417 115.199C189.481 115.531 188.501 115.732 187.503 115.822C186.866 115.879 185.387 115.624 184.967 116.127C184.586 116.582 184.551 117.184 184.341 117.704C183.845 118.935 183.349 120.166 182.853 121.396C182.308 122.747 181.763 124.099 181.218 125.451C180.925 126.179 179.88 127.455 180.722 128.166C182.68 129.817 186.647 129.563 188.782 128.494C191.449 127.158 193.451 125.066 195.605 123.16C196.571 122.306 197.828 121.619 198.7 120.698C199.05 120.329 199.909 118.925 200.568 119.033C199.653 119.564 199.819 120.783 199.57 121.612C199.11 123.142 198.226 124.527 197.543 125.976C196.251 128.717 194.569 131.359 192.765 133.847C190.333 137.2 183.479 141.085 179.471 137.438C178.754 140.571 178.036 143.704 177.319 146.837C177.677 146.768 177.859 147.008 178.131 147.153C178.625 147.414 179.257 147.228 179.788 147.343C181.087 147.626 182.412 147.62 183.738 147.62C186.32 147.62 187.985 145.752 189.797 144.374C191.72 142.911 193.687 141.367 195.44 139.738C196.214 139.019 197.222 138.459 197.934 137.707C198.288 137.333 199.026 136.124 199.707 136.263C198.659 136.948 198.686 138.317 198.013 139.234C196.895 140.759 195.72 142.248 194.525 143.725C192.424 146.319 190.279 149.109 187.403 151.053C184.903 152.742 181.239 153.514 178.24 154.132C177.206 154.345 176.345 154.187 176.142 155.367C175.841 157.127 175.209 158.819 174.735 160.542C174.378 160.38 169.255 158.624 169.568 159.759" fill="#3F7F00"/>
<path fill-rule="evenodd" clip-rule="evenodd" d="M234.148 168.765C229.054 168.765 223.993 169.826 218.893 169.377C214.117 168.957 209.099 168.042 204.668 166.319C200.511 164.702 197.076 161.948 193.796 159.203C192.367 158.007 191.249 156.586 190.28 155.062C189.108 153.222 187.547 151.534 186.798 149.493C186.079 147.534 185.811 145.471 185.381 143.452C185.155 142.394 184.759 141.35 184.667 140.271C184.56 139.01 184.733 137.694 184.782 136.432C184.87 134.191 184.731 131.93 184.995 129.697C185.27 127.377 186.322 125.158 187.024 122.927C188.344 118.734 190.352 114.768 192.427 110.848C194.498 106.935 197.606 103.786 200.609 100.447C202.012 98.8869 203.711 97.8646 205.501 96.7117C207.595 95.3625 209.579 93.8566 211.817 92.7011C213.857 91.648 216.162 91.1937 218.408 90.6559C220.929 90.0518 223.502 89.0112 226.083 88.6906C228.201 88.4274 230.403 88.7161 232.539 88.6258C235.174 88.5146 237.775 88.513 240.408 88.6373C242.857 88.7532 245.357 88.7731 247.769 89.2075C250.222 89.6492 252.593 90.4616 254.94 91.2307C258.969 92.5502 262.997 94.8408 266.077 97.5398C269.584 100.612 272.264 103.857 274.78 107.644C277.332 111.486 279.238 115.678 281.029 119.851C281.875 121.82 282.561 123.813 283.023 125.886C283.52 128.115 284.166 130.155 283.939 132.43C283.688 134.948 283.868 137.498 282.868 139.904C281.836 142.384 280.664 145.066 279.143 147.329C277.706 149.466 275.946 151.598 274.156 153.502C272.324 155.452 269.755 157.184 267.585 158.82C265.46 160.423 262.939 161.46 260.552 162.684C259.179 163.387 257.829 164.16 256.354 164.677C254.981 165.159 253.533 165.451 252.134 165.865C249.433 166.665 246.728 167.539 243.887 167.816C240.64 168.133 237.394 168.448 234.148 168.765" fill="#010101"/>
<path d="M234.148 168.765C229.054 168.765 223.993 169.826 218.893 169.377C214.117 168.957 209.099 168.042 204.668 166.319C200.511 164.702 197.076 161.948 193.796 159.203C192.367 158.007 191.249 156.586 190.28 155.063C189.108 153.222 187.547 151.534 186.798 149.493C186.079 147.534 185.811 145.471 185.381 143.452C185.155 142.394 184.759 141.35 184.667 140.271C184.56 139.01 184.733 137.694 184.782 136.432C184.87 134.191 184.731 131.93 184.995 129.697C185.27 127.377 186.322 125.158 187.024 122.927C188.344 118.734 190.352 114.768 192.427 110.848C194.498 106.935 197.606 103.786 200.609 100.447C202.012 98.8869 203.711 97.8646 205.501 96.7117C207.595 95.3625 209.579 93.8566 211.817 92.7011C213.857 91.648 216.162 91.1937 218.408 90.6559C220.929 90.0518 223.502 89.0112 226.083 88.6906C228.201 88.4274 230.403 88.7161 232.539 88.6258C235.174 88.5146 237.775 88.513 240.408 88.6373C242.857 88.7532 245.357 88.7731 247.769 89.2075C250.222 89.6492 252.593 90.4616 254.94 91.2307C258.969 92.5502 262.997 94.8408 266.077 97.5398C269.584 100.612 272.264 103.857 274.78 107.644C277.332 111.486 279.238 115.678 281.029 119.851C281.875 121.82 282.561 123.813 283.023 125.886C283.52 128.115 284.166 130.155 283.939 132.43C283.688 134.948 283.868 137.498 282.868 139.904C281.836 142.384 280.664 145.066 279.143 147.329C277.706 149.466 275.946 151.598 274.156 153.502C272.324 155.452 269.755 157.184 267.585 158.82C265.46 160.423 262.939 161.46 260.552 162.684C259.179 163.387 257.829 164.16 256.354 164.677C254.981 165.159 253.533 165.451 252.134 165.865C249.433 166.665 246.728 167.539 243.887 167.816C240.64 168.133 237.394 168.448 234.148 168.765" stroke="#010101" stroke-width="0.75" stroke-miterlimit="10" stroke-linecap="round" stroke-linejoin="round"/>
<path fill-rule="evenodd" clip-rule="evenodd" d="M234.148 166.021C231.677 166.341 229.18 166.412 226.691 166.527C224.107 166.647 221.512 166.87 218.93 166.599C214.222 166.103 209.5 165.4 205.32 163.247C203.34 162.227 201.487 161.017 199.707 159.733C197.868 158.406 195.732 157.051 194.253 155.383C192.909 153.865 192.004 152.006 190.968 150.31C189.701 148.236 189.383 146.248 188.679 143.999C188.006 141.847 187.554 139.86 187.626 137.61C187.701 135.271 187.878 132.923 188.027 130.587C188.16 128.479 188.831 126.62 189.462 124.608C190.134 122.46 190.562 120.209 191.523 118.147C192.385 116.296 193.476 114.533 194.41 112.711C195.464 110.654 196.61 108.724 198.227 106.983C201.286 103.688 204.465 100.712 208.301 98.1748C209.993 97.0558 212.005 95.1323 214.041 94.6033C216.445 93.9783 218.843 93.3345 221.247 92.7048C225.963 91.47 230.921 91.1797 235.817 91.2309C240.745 91.2826 245.755 91.8929 250.467 93.226C252.588 93.8259 254.846 94.3413 256.775 95.3662C258.724 96.4011 260.576 97.6856 262.37 98.9267C266.055 101.476 268.648 104.347 271.03 107.923C273.578 111.749 275.961 115.437 277.488 119.715C278.246 121.843 278.915 123.997 279.506 126.169C280.128 128.454 280.791 130.663 280.529 133.033C280.302 135.089 280.175 137.189 279.439 139.155C278.694 141.149 277.804 143.152 276.706 145.008C272.891 151.459 266.743 155.961 259.963 159.668C258.155 160.657 256.374 161.691 254.39 162.368C252.302 163.08 250.106 163.562 247.962 164.116C243.462 165.277 238.772 165.535 234.148 166.02" fill="#E1EDC2"/>
<path d="M234.148 166.021C231.677 166.341 229.18 166.412 226.691 166.527C224.107 166.647 221.512 166.87 218.93 166.599C214.222 166.103 209.5 165.4 205.32 163.247C203.34 162.227 201.487 161.017 199.707 159.733C197.868 158.406 195.732 157.051 194.253 155.383C192.909 153.865 192.004 152.006 190.968 150.31C189.701 148.236 189.383 146.248 188.679 143.999C188.006 141.847 187.554 139.86 187.626 137.61C187.701 135.271 187.878 132.923 188.027 130.587C188.16 128.479 188.831 126.62 189.462 124.608C190.134 122.46 190.562 120.209 191.523 118.147C192.385 116.296 193.476 114.533 194.41 112.711C195.464 110.654 196.61 108.724 198.227 106.983C201.286 103.688 204.465 100.712 208.301 98.1748C209.993 97.0558 212.005 95.1323 214.041 94.6033C216.445 93.9783 218.843 93.3345 221.247 92.7048C225.963 91.47 230.921 91.1797 235.817 91.2309C240.745 91.2826 245.755 91.8929 250.467 93.226C252.588 93.8259 254.846 94.3413 256.775 95.3662C258.724 96.4011 260.576 97.6856 262.37 98.9267C266.055 101.476 268.648 104.347 271.03 107.923C273.578 111.749 275.961 115.437 277.488 119.715C278.246 121.843 278.915 123.997 279.506 126.169C280.128 128.454 280.791 130.663 280.529 133.033C280.302 135.089 280.175 137.189 279.439 139.155C278.694 141.149 277.804 143.152 276.706 145.008C272.891 151.459 266.743 155.961 259.963 159.668C258.155 160.657 256.374 161.691 254.39 162.368C252.302 163.08 250.106 163.562 247.962 164.116C243.462 165.277 238.772 165.535 234.148 166.02" fill="#7FFF00"/>
<path d="M234.148 166.021C231.677 166.341 229.18 166.412 226.691 166.527C224.107 166.647 221.512 166.87 218.93 166.599C214.222 166.103 209.5 165.4 205.32 163.247C203.34 162.227 201.487 161.017 199.707 159.733C197.868 158.406 195.732 157.051 194.253 155.383C192.909 153.865 192.004 152.006 190.968 150.31C189.701 148.236 189.383 146.248 188.679 143.999C188.006 141.847 187.554 139.86 187.626 137.61C187.701 135.271 187.878 132.923 188.027 130.587C188.16 128.479 188.831 126.62 189.462 124.608C190.134 122.46 190.562 120.209 191.523 118.147C192.385 116.296 193.476 114.533 194.41 112.711C195.464 110.654 196.61 108.724 198.227 106.983C201.286 103.688 204.465 100.712 208.301 98.1748C209.993 97.0558 212.005 95.1323 214.041 94.6033C216.445 93.9783 218.843 93.3345 221.247 92.7048C225.963 91.47 230.921 91.1797 235.817 91.2309C240.745 91.2826 245.755 91.8929 250.467 93.226C252.588 93.8259 254.846 94.3413 256.775 95.3662C258.724 96.4011 260.576 97.6856 262.37 98.9267C266.055 101.476 268.648 104.347 271.03 107.923C273.578 111.749 275.961 115.437 277.488 119.715C278.246 121.843 278.915 123.997 279.506 126.169C280.128 128.454 280.791 130.663 280.529 133.033C280.302 135.089 280.175 137.189 279.439 139.155C278.694 141.149 277.804 143.152 276.706 145.008C272.891 151.459 266.743 155.961 259.963 159.668C258.155 160.657 256.374 161.691 254.39 162.368C252.302 163.08 250.106 163.562 247.962 164.116C243.462 165.277 238.772 165.535 234.148 166.02" stroke="#010101" stroke-width="0.75" stroke-miterlimit="10" stroke-linecap="round" stroke-linejoin="round"/>
<path fill-rule="evenodd" clip-rule="evenodd" d="M234.582 166.021C233.865 162.105 233.147 158.189 232.43 154.273C231.657 155.192 230.257 155.375 229.072 155.431C227.033 155.526 225 155.546 222.963 155.418C219.146 155.177 215.335 154.745 211.598 153.984C204.729 152.586 197.495 150.689 192.388 146.05C194.911 147.197 198.165 147.317 200.898 147.897C204.368 148.634 207.904 149.082 211.436 149.488C212.916 149.658 214.418 149.665 215.892 149.441C217.582 149.185 219.308 149.265 221.003 149.045C224.361 148.608 227.76 148.791 231.137 148.791C231.014 146.685 230.893 144.579 230.771 142.472C230.749 142.088 230.932 141.446 230.356 141.354C229.359 141.193 228.184 141.335 227.18 141.4C225.039 141.538 222.935 141.798 220.782 141.713C218.382 141.618 215.985 141.419 213.585 141.299C208.925 141.067 204.783 139.494 200.635 137.644C198.781 136.817 196.982 135.892 195.256 134.861C194.446 134.377 193.471 134.112 192.773 133.478C192.329 133.074 191.868 132.199 191.095 132.343C192.978 132.343 194.758 132.918 196.564 133.325C198.529 133.769 200.539 134.005 202.531 134.319C206.807 134.991 211.115 135.245 215.421 135.689C219.271 136.086 223.205 136.786 227.08 136.236C228.569 136.025 229.536 135.949 229.428 134.479C229.384 133.886 229.803 129.439 229.372 129.273C227.992 128.74 225.636 129.211 224.148 129.211C222.181 129.211 220.285 128.741 218.415 128.235C216.535 127.726 214.605 127.29 212.921 126.337C209.694 124.512 207.25 121.666 204.931 118.982C203.817 117.692 202.708 116.335 201.88 114.872C201.099 113.493 200.629 111.842 199.276 110.805C199.975 110.691 200.842 112.071 201.202 112.47C202.094 113.459 203.469 114.198 204.585 114.965C207.433 116.921 210.379 118.669 213.517 120.22C216.253 121.572 219.252 122.728 222.332 123.229C223.991 123.499 226.224 123.631 227.734 122.83C228.827 122.249 228.722 121.042 228.875 120.029C229.132 118.337 229.389 116.645 229.645 114.953C229.804 113.904 230.503 112.104 230.093 111.065C229.698 110.063 227.383 109.225 226.448 108.649C223.514 106.843 220.44 105.244 217.611 103.295C216.414 102.471 215.168 101.622 214.548 100.335C214.179 99.5691 212.854 98.3447 213.052 97.492C214.654 99.3973 217.476 99.897 219.525 101.236C221.928 102.806 224.293 103.675 227.23 104.125C228.667 104.345 232.818 104.752 233.391 103.194C234.145 101.142 234.808 99.202 235.802 97.2152C236.41 96.0007 237.161 93.5764 239.012 93.5764C240.61 93.5764 239.631 96.2863 239.427 97.0157C238.727 99.51 238.948 102.202 238.904 104.751C238.88 106.168 238.701 107.608 238.958 109.017C239.082 109.693 239.281 110.335 239.296 111.026C239.308 111.551 239.848 112.322 239.746 112.766C240.002 112.354 240.52 112.343 240.976 112.359C241.792 112.388 242.572 112.124 243.333 111.896C245.013 111.391 246.659 110.803 248.321 110.253C249.752 109.778 251.349 109.385 252.628 108.609C253.75 107.929 254.553 106.834 255.53 105.999C256.956 104.781 259.896 102.114 262.199 103.003C263.467 103.493 261.84 106.695 261.383 107.393C258.002 112.564 252.206 115.113 246.126 116.97C244.98 117.32 242.687 117.246 241.964 118.23C241.365 119.046 241.474 120.126 241.265 121.048C240.471 124.553 239.678 128.058 238.885 131.563C242.324 131.563 245.79 131.561 249.135 130.734C250.575 130.377 252.09 130.056 253.443 129.472C254.931 128.829 256.197 127.746 257.4 126.745C260.07 124.525 262.76 122.317 265.348 120.016C266.525 118.971 267.653 117.874 268.908 116.904C269.363 116.553 270.911 115.787 270.746 115.116C270.746 116.842 270.069 118.475 269.612 120.128C269.111 121.941 268.778 123.781 268.061 125.541C266.755 128.749 264.824 131.747 262.339 134.318C259.95 136.789 256.747 138.301 253.449 139.535C251.487 140.269 249.475 140.921 247.373 141.223C245.275 141.524 243.149 141.353 241.038 141.353C241.347 143.609 241.566 145.875 241.873 148.131C241.961 148.785 241.912 149.542 242.124 150.175C242.389 150.971 243.422 150.751 244.13 150.739C248.635 150.663 253.461 149.918 257.492 147.98C259.483 147.022 261.141 145.481 262.81 144.129C264.648 142.639 266.54 141.216 268.406 139.757C270.025 138.494 271.262 136.962 272.796 135.643C274.328 134.326 276.227 133.398 277.634 131.955C274.762 137.179 271.179 142.051 267.121 146.573C265.158 148.761 263.072 150.829 260.507 152.445C257.797 154.152 254.662 154.877 251.616 155.933C250.165 156.437 248.689 156.879 247.219 157.333C246.101 157.678 244.576 157.766 244.396 159.02C244.169 160.611 244.6 162.324 244.599 163.928C244.599 164.736 244.623 165.175 243.654 165.345C242.39 165.568 241.098 165.305 239.831 165.261C238.531 165.214 235.375 164.754 234.582 166.021" fill="#3F7F00"/>
<path fill-rule="evenodd" clip-rule="evenodd" d="M212.623 165.237C210.273 165.237 207.952 165.671 205.603 165.69C202.906 165.712 200.184 165.704 197.508 165.377C192.837 164.808 188.782 163.272 185.031 160.71C183.185 159.451 181.301 158.108 179.631 156.659C178.094 155.326 177.245 153.509 176.17 151.88C175.057 150.194 174.831 148.246 174.501 146.344C174.082 143.931 173.874 141.629 173.809 139.191C173.752 137.057 173.655 135.082 174.155 132.977C174.691 130.728 175.328 128.429 176.25 126.285C177.995 122.227 179.935 118.346 182.926 114.92C185.749 111.688 189.098 109.256 192.758 106.86C196.515 104.399 201.764 103.28 206.293 102.658C211.051 102.004 215.823 102.33 220.601 102.516C224.793 102.678 229.61 103.951 233.113 106.064C240.032 110.237 244.735 116.606 248.132 123.38C250.104 127.314 252.287 131.604 252.106 136.026C252.019 138.153 251.717 140.471 251.032 142.51C250.415 144.348 249.896 146.448 248.715 148.065C243.613 155.051 236.403 159.954 227.723 162.726C222.801 164.298 217.787 164.811 212.623 165.238" fill="#010101"/>
<path d="M212.623 165.237C210.273 165.237 207.952 165.671 205.603 165.69C202.906 165.712 200.184 165.704 197.508 165.377C192.837 164.808 188.782 163.272 185.031 160.71C183.185 159.451 181.301 158.108 179.631 156.659C178.094 155.326 177.245 153.509 176.17 151.88C175.057 150.194 174.831 148.246 174.501 146.344C174.082 143.931 173.874 141.629 173.809 139.191C173.752 137.057 173.655 135.082 174.155 132.977C174.691 130.728 175.328 128.429 176.25 126.285C177.995 122.227 179.935 118.346 182.926 114.92C185.749 111.688 189.098 109.256 192.758 106.86C196.515 104.399 201.764 103.28 206.293 102.658C211.051 102.004 215.823 102.33 220.601 102.516C224.793 102.678 229.61 103.951 233.113 106.064C240.032 110.237 244.735 116.606 248.132 123.38C250.104 127.314 252.287 131.604 252.106 136.026C252.019 138.153 251.717 140.471 251.032 142.51C250.415 144.348 249.896 146.448 248.715 148.065C243.613 155.051 236.403 159.954 227.723 162.726C222.801 164.298 217.787 164.811 212.623 165.238" stroke="#010101" stroke-width="0.75" stroke-miterlimit="10" stroke-linecap="round" stroke-linejoin="round"/>
<path fill-rule="evenodd" clip-rule="evenodd" d="M212.623 163.282C210.164 163.282 207.741 163.762 205.278 163.776C202.825 163.791 200.366 163.728 197.946 163.331C193.618 162.62 189.392 161.087 186.005 158.492C184.274 157.165 182.583 155.725 181.237 154.061C180.598 153.271 180.084 152.405 179.45 151.614C178.839 150.852 177.967 150.079 177.735 149.127C177.216 147.003 176.548 144.902 176.262 142.736C175.944 140.326 176.259 137.9 176.392 135.489C176.507 133.388 177.365 131.39 178.002 129.389C178.705 127.175 179.583 125.081 180.641 122.989C182.633 119.052 185.226 115.413 188.694 112.394C191.894 109.609 195.74 107.544 199.874 106.203C202.023 105.506 204.162 104.664 206.442 104.405C208.773 104.141 211.23 104.091 213.577 104.133C217.974 104.212 222.576 104.606 226.613 106.244C230.444 107.798 234.294 109.18 237.088 112.154C242.963 118.408 247.223 125.958 248.987 134.047C250.72 141.995 245.242 149.536 238.977 154.557C235.511 157.334 231.506 159.419 227.169 160.853C225.086 161.541 222.975 162.389 220.766 162.675C218.079 163.023 215.325 163.048 212.624 163.283" fill="#7FFF00"/>
<path fill-rule="evenodd" clip-rule="evenodd" d="M213.052 163.282C212.478 160.149 211.904 157.016 211.33 153.883C210.957 154.48 209.68 154.472 209.04 154.584C207.696 154.82 206.465 155.131 205.075 155.089C201.949 154.993 198.742 154.477 195.725 153.749C190.052 152.379 184.252 151.577 179.899 147.618C182.177 147.456 184.171 148.685 186.33 149.108C188.855 149.602 191.432 149.884 194.013 149.958C196.643 150.034 199.348 150.299 201.964 149.935C204.779 149.545 207.629 149.576 210.469 149.576C210.219 147.872 209.969 146.169 209.72 144.465C209.524 143.127 207.573 143.742 206.634 143.882C202.95 144.429 199.261 144.016 195.572 143.632C191.943 143.253 188.295 141.88 185.052 140.399C183.778 139.817 182.427 139.201 181.359 138.331C180.737 137.824 179.565 136.516 178.609 136.653C180.082 136.653 181.504 137.05 182.928 137.341C184.679 137.701 186.484 137.882 188.263 138.09C191.678 138.49 195.099 138.856 198.52 139.219C201.563 139.543 204.612 139.87 207.678 139.956C208.952 139.992 208.905 139.364 208.813 138.368C208.691 137.043 208.748 135.707 208.748 134.378C208.748 134.512 205.104 134.081 204.753 134.035C201.764 133.638 198.594 132.985 195.927 131.652C193.465 130.421 191.368 128.308 189.705 126.277C188.809 125.182 188.266 123.881 187.369 122.791C186.674 121.947 185.37 120.988 185.498 119.814C186.193 120.565 187.256 121.062 188.054 121.729C189.007 122.524 190.047 123.241 191.074 123.956C193.143 125.395 195.367 126.652 197.697 127.711C200.008 128.762 202.658 129.741 205.331 129.512C206.109 129.445 207.732 129.212 208.234 128.616C208.742 128.012 208.597 126.873 208.7 126.158C208.952 124.393 209.353 122.645 209.594 120.882C209.846 119.045 207.172 118.547 205.714 117.838C203.408 116.717 201.514 115.011 199.563 113.458C198.143 112.327 196.262 111.154 196.262 109.241C196.996 109.908 197.879 110.051 198.695 110.554C199.399 110.987 199.827 111.669 200.556 112.103C202.566 113.301 204.571 114.148 206.996 114.307C208.229 114.388 209.466 114.366 210.701 114.363C211.814 114.36 212.016 114.441 212.346 113.508C213.052 111.506 213.781 109.594 214.67 107.661C214.968 107.013 216.245 105.186 216.806 106.686C217.106 107.489 217.14 108.661 216.843 109.473C216.102 111.492 216.497 113.676 216.497 115.758V118.933C216.497 119.332 216.544 119.604 216.788 119.943C217.098 120.374 216.928 120.907 216.928 121.381C217.296 120.793 218.481 120.807 219.112 120.749C220.43 120.627 221.639 120.118 222.847 119.655C223.984 119.22 225.235 118.954 226.271 118.326C227.473 117.598 228.488 116.651 229.572 115.792C230.232 115.267 234.384 112.322 235.041 113.94C235.505 115.08 234.273 117.074 233.611 117.978C231.178 121.302 226.696 122.997 222.82 124.527C221.827 124.919 220.856 125.352 219.743 125.282C218.587 125.209 218.488 126.185 218.365 126.986C217.905 129.96 217.121 132.921 216.498 135.87C221.131 135.87 226.071 135.811 229.873 133.065C234.07 130.035 237.694 126.38 241.469 122.947C241.579 124.398 240.955 125.814 240.612 127.208C240.288 128.527 240.01 129.866 239.404 131.108C238.088 133.801 236.54 136.451 234.467 138.731C232.709 140.665 229.944 141.371 227.542 142.405C224.622 143.661 221.384 143.702 218.22 143.702C218.423 145.453 218.625 147.204 218.828 148.955C218.865 149.278 218.752 151.012 219.13 151.122C220.636 151.556 222.892 151.01 224.379 150.69C226.232 150.29 228.181 150.039 229.94 149.355C233.487 147.974 236.067 145.211 238.887 142.919C240.347 141.733 241.75 140.489 243.251 139.344C244.522 138.375 245.567 136.943 247.068 136.262C246.41 136.692 246.223 137.469 245.978 138.125C245.577 139.195 244.695 140.022 244.06 140.973C242.812 142.847 241.542 144.713 240.025 146.419C238.516 148.116 236.895 149.736 235.097 151.184C233.159 152.745 230.753 153.662 228.421 154.62C226.256 155.509 223.94 156.074 221.686 156.741C219.954 157.253 220.884 160.684 220.798 162.005C220.731 163.025 217.071 162.493 216.263 162.509C215.781 162.518 212.87 162.485 213.052 163.282" fill="#3F7F00"/>
<path fill-rule="evenodd" clip-rule="evenodd" d="M207.457 179.731C198.26 179.731 188.747 178.895 180.563 174.768C176.769 172.855 173.202 170.33 170.669 167.095C170.029 166.279 169.489 165.41 168.943 164.54C168.42 163.708 167.594 162.777 167.401 161.82C167.001 159.827 166.904 157.393 167.088 155.375C167.283 153.23 168.138 151.124 168.803 149.072C169.478 146.985 170.591 145.338 171.732 143.447C173.786 140.04 176.672 137.075 179.811 134.42C181.514 132.979 183.565 131.875 185.461 130.66C187.519 129.341 189.426 128.201 191.808 127.414C193.902 126.723 195.975 125.928 198.096 125.311C200.563 124.592 203.23 124.522 205.793 124.272C215.96 123.281 225.863 124.322 235.53 127.343C240.008 128.743 243.829 130.628 247.286 133.618C250.526 136.421 253.033 139.763 254.916 143.443C257.016 147.546 258.396 151.753 258.576 156.287C258.613 157.22 258.853 158.299 258.561 159.21C258.289 160.056 257.798 160.832 257.489 161.669C256.686 163.842 255.463 165.541 253.756 167.226C247.867 173.038 240.022 176.536 231.635 178.338C227.948 179.13 224.094 179.717 220.319 180.006C216.081 180.33 211.7 179.881 207.457 179.732" fill="#010101"/>
<path d="M207.457 179.731C198.26 179.731 188.747 178.895 180.563 174.768C176.769 172.855 173.202 170.33 170.669 167.095C170.029 166.279 169.489 165.41 168.943 164.54C168.42 163.708 167.594 162.777 167.401 161.82C167.001 159.827 166.904 157.393 167.088 155.375C167.283 153.23 168.138 151.124 168.803 149.072C169.478 146.985 170.591 145.338 171.732 143.447C173.786 140.04 176.672 137.075 179.811 134.42C181.514 132.979 183.565 131.875 185.461 130.66C187.519 129.341 189.426 128.201 191.808 127.414C193.902 126.723 195.975 125.928 198.096 125.311C200.563 124.592 203.23 124.522 205.793 124.272C215.96 123.281 225.863 124.322 235.53 127.343C240.008 128.743 243.829 130.628 247.286 133.618C250.526 136.421 253.033 139.763 254.916 143.443C257.016 147.546 258.396 151.753 258.576 156.287C258.613 157.22 258.853 158.299 258.561 159.21C258.289 160.056 257.798 160.832 257.489 161.669C256.686 163.842 255.463 165.541 253.756 167.226C247.867 173.038 240.022 176.536 231.635 178.338C227.948 179.13 224.094 179.717 220.319 180.006C216.081 180.33 211.7 179.881 207.457 179.732" stroke="#010101" stroke-width="0.75" stroke-miterlimit="10" stroke-linecap="round" stroke-linejoin="round"/>
<path fill-rule="evenodd" clip-rule="evenodd" d="M207.31 178.165C202.277 177.402 196.984 178.112 192.024 176.969C187.725 175.978 183.242 174.451 179.577 172.175C175.989 169.947 172.977 167.487 171.227 163.799C170.296 161.835 169.529 159.767 169.349 157.622C169.157 155.345 169.844 153.035 170.373 150.824C172.353 142.547 180.126 136.113 187.404 131.413C191.146 128.998 195.974 127.722 200.427 126.839C205.247 125.883 210.361 125.564 215.283 125.846C224.967 126.401 234.174 128.553 242.314 133.445C246.092 135.716 248.821 139.308 250.591 143.033C251.512 144.972 252.465 146.908 253.325 148.87C254.302 151.1 254.68 153.337 255.045 155.699C255.352 157.684 254.564 159.465 253.795 161.28C253.415 162.179 253.228 162.945 252.577 163.733C251.755 164.73 250.925 165.721 250.128 166.734C248.83 168.386 247.16 169.309 245.328 170.402C243.195 171.675 241.005 172.881 238.706 173.892C234.498 175.746 229.672 177.095 225.037 177.574C219.937 178.1 214.94 178.237 209.808 178.18C208.975 178.172 208.142 178.165 207.309 178.165" fill="#7FFF00"/>
<path fill-rule="evenodd" clip-rule="evenodd" d="M208.314 178.165V169.549C207.498 170.904 203.785 170.096 202.5 169.935C198.843 169.478 195.339 168.715 191.772 167.858C187.895 166.924 184.055 165.996 180.37 164.528C178.537 163.798 176.823 162.851 174.996 162.113C174.294 161.829 173.87 159.969 173.008 160.151C174.751 160.151 176.15 161.248 177.745 161.717C179.812 162.326 181.94 162.734 184.042 163.227C188.235 164.209 192.55 165.038 196.903 164.874C199.76 164.768 202.493 165.216 205.323 165.505C205.94 165.568 207.241 165.887 207.823 165.583C208.65 165.149 208.243 161.352 208.314 160.542C206.777 160.542 205.276 160.163 203.74 160.148C202.218 160.133 200.693 160.04 199.19 159.812C195.895 159.313 192.722 158.759 189.473 158.02C186.619 157.372 183.811 156.471 181.325 155.017C178.792 153.535 176.022 152.318 173.87 150.36C174.13 150.776 174.723 150.811 175.185 150.839C176.112 150.893 176.961 151.176 177.837 151.434C179.644 151.967 181.535 152.184 183.369 152.621C187.15 153.523 190.898 154.553 194.739 155.235C198.451 155.893 202.217 156.541 206.007 156.624C207.462 156.656 208.122 156.529 208.556 155.194C208.862 154.252 208.892 153.262 209.175 152.318C207.956 152.415 206.886 151.739 205.72 151.551C204.301 151.323 202.974 151.351 201.578 150.929C199.059 150.165 196.382 149.521 194.194 148.094C191.97 146.645 190.234 144.501 188.598 142.537C187.688 141.443 186.91 140.306 186.367 139.021C185.956 138.047 185.591 136.92 184.633 136.263C185.28 136.157 185.885 137.403 186.275 137.756C187.214 138.605 188.188 139.38 189.268 140.08C191.488 141.518 193.755 142.92 196.131 144.139C198.457 145.332 200.897 146.135 203.429 146.874C205.325 147.427 207.658 148.204 209.547 147.124C210.131 146.79 210.28 145.802 210.431 145.252C210.708 144.248 211.123 143.283 211.498 142.307C211.739 141.682 212.832 139.981 212.455 139.321C211.977 138.481 210.388 137.926 209.536 137.466C207.251 136.235 205.106 134.786 202.988 133.332C201.185 132.093 199.271 130.675 199.271 128.429C199.096 129.314 201.288 130.065 201.93 130.371C204.045 131.378 205.947 132.733 208.133 133.625C209.903 134.347 212.027 134.87 213.98 134.746C214.862 134.689 215.888 135.012 216.724 134.645C217.515 134.298 217.505 133.29 217.909 132.681C218.661 131.55 219.691 130.236 220.675 129.263C221.124 128.817 224.021 127.411 223.926 128.886C223.873 129.696 223.256 130.547 222.938 131.286C222.439 132.45 222.022 133.643 221.696 134.857C221.091 137.109 220.799 139.426 220.799 141.744C221.253 140.996 222.451 141.353 223.182 141.353C224.589 141.353 225.96 140.988 227.358 140.89C229.588 140.734 232.16 140.883 234.145 139.786C234.523 139.578 234.663 139.159 235.065 138.976C235.722 138.678 236.382 138.389 237.055 138.124C238.296 137.635 239.663 137.239 240.965 136.905C242.943 136.398 242.756 138.114 242.082 139.225C241.01 140.994 238.808 141.939 236.831 142.651C234.047 143.653 231.205 144.307 228.252 144.74C226.864 144.943 225.476 145.146 224.084 145.325C223.004 145.465 222.203 145.603 221.634 146.515C220.07 149.022 218.772 151.697 217.354 154.275C217.813 154.239 218.228 154.426 218.647 154.559C219.386 154.795 220.105 154.541 220.849 154.676C222.238 154.929 223.655 155.058 225.072 155.058C227.898 155.058 230.748 154.645 233.295 153.487C236.113 152.205 238.931 150.923 241.75 149.642C242.994 149.076 244.165 148.395 245.402 147.82C246.53 147.295 247.983 147.017 248.784 146.051C248.93 147.056 248.037 148.175 247.558 149.02C246.836 150.289 246.134 151.433 245.129 152.545C242.958 154.949 240.68 157.417 237.638 158.941C234.778 160.374 231.556 161.174 228.346 161.627C226.629 161.87 224.893 162.063 223.154 162.101C222.251 162.121 221.501 161.896 220.625 161.759C219.782 161.627 219.008 161.685 218.215 161.324C218.071 163.674 217.928 166.023 217.784 168.373C223.999 168.373 230.953 169.187 236.485 166.051C239.107 164.565 242.037 163.586 244.725 162.205C246.048 161.526 247.382 160.865 248.668 160.128C249.884 159.432 251.156 158.583 252.659 158.583C250.277 159.666 248.802 161.738 246.957 163.394C245.008 165.144 242.687 166.5 240.408 167.86C237.97 169.314 235.431 170.78 232.596 171.489C229.792 172.19 226.852 172.349 224.005 172.857C222.678 173.093 221.346 173.329 219.996 173.423C218.768 173.507 218.528 173.416 218.237 174.538C218.006 175.423 218.038 178.171 216.842 178.284C214.991 178.46 209.369 176.412 208.314 178.165" fill="#3F7F00"/>
<path fill-rule="evenodd" clip-rule="evenodd" d="M109.372 139.99L121.065 169.675C132.453 180.34 144.445 192.302 202.493 192.069C245.987 192.205 274.998 184.728 288.389 174.354C297.534 166.381 302.144 138.936 302.144 138.936C302.144 138.936 283.095 160.651 202.35 160.651C121.605 160.651 109.37 139.99 109.37 139.99H109.37H109.372Z" fill="black"/>
<path fill-rule="evenodd" clip-rule="evenodd" d="M110.928 142.957L122.663 169.912C133.816 179.994 149.319 190.61 206.466 190.486C249.284 190.686 275.626 180.912 288.864 171.144C297.911 163.636 301.229 142.011 301.229 142.011C301.229 142.011 280.339 163.238 200.849 163.105C121.361 162.973 110.926 142.957 110.926 142.957H110.926H110.926H110.928Z" fill="#BF8F5B"/>
</svg>
