<?xml version="1.0" standalone="no"?>
<!DOCTYPE svg PUBLIC "-//W3C//DTD SVG 20010904//EN"
 "http://www.w3.org/TR/2001/REC-SVG-20010904/DTD/svg10.dtd">
<svg version="1.0" xmlns="http://www.w3.org/2000/svg"
 width="260.000000pt" height="260.000000pt" viewBox="0 0 260.000000 260.000000"
 preserveAspectRatio="xMidYMid meet">
<metadata>
Created by potrace 1.14, written by Peter Selinger 2001-2017
</metadata>
<g transform="translate(0.000000,260.000000) scale(0.100000,-0.100000)"
fill="#000000" stroke="none">
<path d="M170 1932 c0 -25 5 -29 50 -41 32 -8 62 -25 88 -50 39 -38 154 -237
286 -495 l66 -129 0 -186 c-1 -228 -3 -232 -128 -247 -60 -6 -62 -8 -62 -35
l0 -29 290 0 290 0 0 28 c0 26 -3 28 -67 40 -78 15 -110 33 -123 68 -17 43
-12 335 5 384 21 59 169 318 267 465 81 123 121 162 191 184 31 11 37 17 37
42 l0 29 -215 0 -215 0 0 -28 c0 -27 3 -28 65 -39 137 -24 137 -25 -72 -370
-58 -95 -108 -173 -111 -173 -7 0 -191 335 -247 449 -14 29 -24 59 -21 66 6
17 68 35 119 35 34 0 37 2 37 30 l0 30 -265 0 -265 0 0 -28z"/>
<path d="M1390 1932 c0 -26 4 -29 69 -45 114 -30 106 14 109 -531 3 -490 0
-536 -38 -556 -10 -6 -46 -13 -80 -17 -58 -6 -60 -7 -60 -34 l0 -29 270 0 270
0 0 29 c0 27 -3 30 -50 36 -27 4 -64 17 -82 29 l-33 22 -3 243 -2 243 119 -3
c101 -3 124 -7 148 -25 33 -24 71 -94 80 -146 5 -35 8 -38 39 -38 l34 0 0 245
0 245 -34 0 c-31 0 -34 -2 -40 -41 -10 -61 -41 -114 -82 -140 -32 -19 -55 -24
-151 -27 l-113 -5 0 252 0 251 163 0 c89 0 179 -5 199 -10 47 -13 119 -93 156
-171 25 -54 30 -59 60 -59 l32 0 0 155 0 155 -490 0 -490 0 0 -28z"/>
</g>
</svg>
